<svg xmlns="http://www.w3.org/2000/svg" xmlns:xlink="http://www.w3.org/1999/xlink" viewBox="0 0 485.06 525.17"><defs><style>.cls-1{isolation:isolate;}.cls-2{fill:url(#linear-gradient);}.cls-3{opacity:0.7;}.cls-4{opacity:0;}.cls-5{opacity:0.01;}.cls-6{opacity:0.03;}.cls-7{opacity:0.04;}.cls-8{opacity:0.06;}.cls-9{opacity:0.07;}.cls-10{opacity:0.08;}.cls-11{opacity:0.1;}.cls-12{opacity:0.11;}.cls-13{opacity:0.13;}.cls-14{opacity:0.14;}.cls-15{opacity:0.15;}.cls-16{opacity:0.17;}.cls-17{opacity:0.18;}.cls-18{opacity:0.2;}.cls-19{opacity:0.21;}.cls-20{opacity:0.23;}.cls-21{opacity:0.24;}.cls-22{opacity:0.25;}.cls-23{opacity:0.27;}.cls-24{opacity:0.28;}.cls-25{opacity:0.3;}.cls-26{opacity:0.31;}.cls-27{opacity:0.32;}.cls-28{opacity:0.34;}.cls-29{opacity:0.35;}.cls-30{opacity:0.37;}.cls-31{opacity:0.38;}.cls-32{opacity:0.39;}.cls-33{opacity:0.41;}.cls-34{opacity:0.42;}.cls-35{opacity:0.44;}.cls-36{opacity:0.45;}.cls-37{opacity:0.46;}.cls-38{opacity:0.48;}.cls-39{opacity:0.49;}.cls-40{opacity:0.51;}.cls-41{opacity:0.52;}.cls-42{opacity:0.54;}.cls-43{opacity:0.55;}.cls-44{opacity:0.56;}.cls-45{opacity:0.58;}.cls-46{opacity:0.59;}.cls-47{opacity:0.61;}.cls-48{opacity:0.62;}.cls-49{opacity:0.63;}.cls-50{opacity:0.65;}.cls-51{opacity:0.66;}.cls-52{opacity:0.68;}.cls-53{opacity:0.69;}.cls-54{opacity:0.7;}.cls-55{opacity:0.72;}.cls-56{opacity:0.73;}.cls-57{opacity:0.75;}.cls-58{opacity:0.76;}.cls-59{opacity:0.77;}.cls-60{opacity:0.79;}.cls-61{opacity:0.8;}.cls-62{opacity:0.82;}.cls-63{opacity:0.83;}.cls-64{opacity:0.85;}.cls-65{opacity:0.86;}.cls-66{opacity:0.87;}.cls-67{opacity:0.89;}.cls-68{opacity:0.9;}.cls-69{opacity:0.92;}.cls-70{opacity:0.93;}.cls-71{opacity:0.94;}.cls-72{opacity:0.96;}.cls-73{opacity:0.97;}.cls-74{opacity:0.99;}.cls-75{fill:url(#linear-gradient-2);}.cls-76{fill:url(#radial-gradient);}.cls-77{fill:url(#radial-gradient-2);}.cls-78,.cls-79{mix-blend-mode:screen;}.cls-78{fill:url(#radial-gradient-3);}.cls-79{fill:url(#radial-gradient-4);}.cls-80{fill:url(#linear-gradient-3);}.cls-81{fill:url(#linear-gradient-4);}.cls-82{fill:url(#linear-gradient-5);}.cls-83{fill:url(#linear-gradient-6);}.cls-84{fill:url(#linear-gradient-7);}.cls-85{fill:url(#linear-gradient-8);}.cls-86{fill:url(#linear-gradient-9);}.cls-87{fill:url(#linear-gradient-10);}.cls-88{fill:url(#linear-gradient-11);}.cls-89{fill:url(#linear-gradient-12);}.cls-90{fill:url(#linear-gradient-13);}.cls-91{fill:url(#linear-gradient-14);}.cls-92{fill:url(#linear-gradient-15);}.cls-93{fill:url(#linear-gradient-16);}.cls-94{fill:url(#linear-gradient-17);}.cls-95{fill:url(#linear-gradient-18);}.cls-96{fill:url(#linear-gradient-19);}.cls-97{fill:url(#linear-gradient-20);}.cls-98{fill:url(#linear-gradient-21);}.cls-99{fill:url(#linear-gradient-22);}.cls-100{fill:url(#linear-gradient-23);}.cls-101{fill:url(#linear-gradient-24);}.cls-102{fill:url(#linear-gradient-25);}.cls-103{fill:url(#linear-gradient-26);}.cls-104{fill:url(#linear-gradient-27);}.cls-105{fill:url(#linear-gradient-28);}.cls-106{fill:url(#linear-gradient-29);}.cls-107{fill:url(#linear-gradient-30);}.cls-108{fill:url(#linear-gradient-31);}.cls-109{fill:url(#linear-gradient-32);}.cls-110{fill:url(#linear-gradient-33);}.cls-111{fill:url(#linear-gradient-34);}.cls-112{fill:url(#linear-gradient-35);}.cls-113{fill:url(#linear-gradient-36);}.cls-114{fill:url(#linear-gradient-37);}.cls-115{fill:url(#linear-gradient-38);}.cls-116{fill:url(#linear-gradient-39);}.cls-117{fill:url(#linear-gradient-40);}.cls-118{fill:url(#linear-gradient-41);}.cls-119{fill:url(#linear-gradient-42);}.cls-120{fill:url(#linear-gradient-43);}.cls-121{fill:url(#linear-gradient-44);}.cls-122{fill:url(#linear-gradient-45);}.cls-123{fill:url(#linear-gradient-46);}.cls-124{fill:url(#linear-gradient-47);}.cls-125{fill:url(#linear-gradient-48);}.cls-126{fill:url(#linear-gradient-49);}.cls-127{fill:url(#linear-gradient-50);}.cls-128{fill:url(#linear-gradient-51);}.cls-129{fill:url(#linear-gradient-52);}.cls-130{fill:url(#linear-gradient-53);}.cls-131{fill:url(#linear-gradient-54);}.cls-132{fill:url(#linear-gradient-55);}.cls-133{fill:url(#linear-gradient-56);}.cls-134{fill:url(#linear-gradient-57);}.cls-135{fill:url(#linear-gradient-58);}.cls-136{fill:url(#linear-gradient-59);}.cls-137{fill:url(#linear-gradient-60);}.cls-138{fill:url(#linear-gradient-61);}.cls-139{fill:url(#linear-gradient-62);}.cls-140{fill:url(#linear-gradient-63);}.cls-141{fill:url(#linear-gradient-64);}.cls-142{fill:url(#linear-gradient-65);}.cls-143{fill:url(#linear-gradient-66);}.cls-144{fill:url(#linear-gradient-67);}.cls-145{fill:url(#linear-gradient-68);}.cls-146{fill:url(#linear-gradient-69);}.cls-147{fill:url(#linear-gradient-70);}.cls-148{fill:url(#linear-gradient-71);}.cls-149{fill:url(#linear-gradient-72);}.cls-150{fill:url(#linear-gradient-73);}.cls-151{fill:url(#linear-gradient-74);}.cls-152{fill:url(#linear-gradient-75);}.cls-153{fill:url(#linear-gradient-76);}.cls-154{fill:url(#linear-gradient-77);}.cls-155{fill:url(#linear-gradient-78);}.cls-156{fill:url(#linear-gradient-79);}.cls-157{fill:url(#linear-gradient-80);}.cls-158{fill:url(#linear-gradient-81);}.cls-159{fill:url(#linear-gradient-82);}.cls-160{fill:url(#linear-gradient-83);}.cls-161{fill:url(#linear-gradient-84);}.cls-162{fill:url(#linear-gradient-85);}.cls-163{fill:url(#linear-gradient-86);}.cls-164{fill:url(#linear-gradient-87);}.cls-165{fill:url(#linear-gradient-88);}.cls-166{fill:url(#linear-gradient-89);}.cls-167{fill:url(#linear-gradient-90);}.cls-168{fill:url(#linear-gradient-91);}.cls-169{fill:url(#linear-gradient-92);}.cls-170{fill:url(#linear-gradient-93);}.cls-171{fill:url(#linear-gradient-94);}.cls-172{fill:url(#linear-gradient-95);}.cls-173{fill:url(#linear-gradient-96);}.cls-174{fill:url(#linear-gradient-97);}.cls-175{fill:url(#linear-gradient-98);}.cls-176{fill:url(#linear-gradient-99);}.cls-177{fill:url(#linear-gradient-100);}.cls-178{fill:url(#linear-gradient-101);}.cls-179{fill:url(#linear-gradient-102);}.cls-180{fill:url(#linear-gradient-103);}.cls-181{fill:url(#linear-gradient-104);}.cls-182{fill:url(#linear-gradient-105);}.cls-183{fill:url(#linear-gradient-106);}.cls-184{fill:url(#linear-gradient-107);}.cls-185{fill:url(#linear-gradient-108);}.cls-186{fill:url(#linear-gradient-109);}.cls-187{fill:url(#linear-gradient-110);}.cls-188{fill:url(#linear-gradient-111);}.cls-189{fill:url(#linear-gradient-112);}.cls-190{fill:url(#linear-gradient-113);}.cls-191{fill:url(#linear-gradient-114);}.cls-192{fill:url(#linear-gradient-115);}.cls-193{fill:url(#linear-gradient-116);}.cls-194{fill:url(#linear-gradient-117);}.cls-195{fill:url(#linear-gradient-118);}.cls-196{fill:url(#linear-gradient-119);}.cls-197{fill:url(#linear-gradient-120);}.cls-198{fill:url(#linear-gradient-121);}.cls-199{fill:url(#linear-gradient-122);}.cls-200{fill:url(#linear-gradient-123);}.cls-201{fill:url(#linear-gradient-124);}.cls-202{fill:url(#linear-gradient-125);}.cls-203{fill:url(#linear-gradient-126);}.cls-204{fill:url(#linear-gradient-127);}.cls-205{fill:url(#linear-gradient-128);}.cls-206{fill:url(#linear-gradient-129);}.cls-207{fill:url(#linear-gradient-130);}.cls-208{fill:url(#linear-gradient-131);}.cls-209{fill:url(#linear-gradient-132);}.cls-210{fill:url(#linear-gradient-133);}.cls-211{fill:url(#linear-gradient-134);}.cls-212{fill:url(#linear-gradient-135);}.cls-213{fill:url(#linear-gradient-136);}.cls-214{fill:url(#linear-gradient-137);}.cls-215{fill:url(#linear-gradient-138);}.cls-216{fill:url(#linear-gradient-139);}.cls-217{fill:url(#linear-gradient-140);}.cls-218{fill:url(#linear-gradient-141);}.cls-219{fill:url(#linear-gradient-142);}.cls-220{fill:url(#linear-gradient-143);}.cls-221{fill:url(#linear-gradient-144);}.cls-222{fill:url(#linear-gradient-145);}.cls-223{fill:url(#linear-gradient-146);}.cls-224{fill:url(#linear-gradient-147);}.cls-225{fill:url(#linear-gradient-148);}.cls-226{fill:url(#linear-gradient-149);}.cls-227{fill:url(#linear-gradient-150);}.cls-228{fill:url(#linear-gradient-151);}.cls-229{fill:url(#linear-gradient-152);}.cls-230{fill:#f7f0e2;}.cls-231{opacity:0.78;}.cls-232{fill:url(#Áåçûìÿííûé_ãðàäèåíò_73);}.cls-233{fill:url(#Áåçûìÿííûé_ãðàäèåíò_73-2);}.cls-234{fill:url(#Áåçûìÿííûé_ãðàäèåíò_73-3);}.cls-235{fill:url(#Áåçûìÿííûé_ãðàäèåíò_73-4);}.cls-236{fill:url(#Áåçûìÿííûé_ãðàäèåíò_73-5);}.cls-237{fill:url(#Áåçûìÿííûé_ãðàäèåíò_73-6);}.cls-238{fill:url(#Áåçûìÿííûé_ãðàäèåíò_73-7);}.cls-239{fill:url(#Áåçûìÿííûé_ãðàäèåíò_73-8);}.cls-240{fill:url(#Áåçûìÿííûé_ãðàäèåíò_73-9);}.cls-241{fill:url(#Áåçûìÿííûé_ãðàäèåíò_73-10);}.cls-242{fill:url(#Áåçûìÿííûé_ãðàäèåíò_73-11);}.cls-243{fill:url(#Áåçûìÿííûé_ãðàäèåíò_73-12);}.cls-244{fill:url(#Áåçûìÿííûé_ãðàäèåíò_73-13);}.cls-245{fill:url(#Áåçûìÿííûé_ãðàäèåíò_73-14);}.cls-246{fill:url(#Áåçûìÿííûé_ãðàäèåíò_73-15);}.cls-247{fill:url(#Áåçûìÿííûé_ãðàäèåíò_73-16);}.cls-248{fill:url(#Áåçûìÿííûé_ãðàäèåíò_73-17);}.cls-249{fill:url(#Áåçûìÿííûé_ãðàäèåíò_73-18);}.cls-250{fill:url(#Áåçûìÿííûé_ãðàäèåíò_73-19);}.cls-251{fill:url(#Áåçûìÿííûé_ãðàäèåíò_73-20);}.cls-252{fill:url(#Áåçûìÿííûé_ãðàäèåíò_73-21);}.cls-253{fill:url(#Áåçûìÿííûé_ãðàäèåíò_73-22);}.cls-254{fill:url(#Áåçûìÿííûé_ãðàäèåíò_73-23);}.cls-255{fill:url(#Áåçûìÿííûé_ãðàäèåíò_73-24);}.cls-256{fill:url(#Áåçûìÿííûé_ãðàäèåíò_73-25);}.cls-257{fill:url(#Áåçûìÿííûé_ãðàäèåíò_73-26);}.cls-258{fill:url(#Áåçûìÿííûé_ãðàäèåíò_73-27);}.cls-259{fill:url(#Áåçûìÿííûé_ãðàäèåíò_73-28);}.cls-260{fill:url(#Áåçûìÿííûé_ãðàäèåíò_73-29);}.cls-261{fill:url(#Áåçûìÿííûé_ãðàäèåíò_73-30);}.cls-262{fill:url(#Áåçûìÿííûé_ãðàäèåíò_73-31);}</style><linearGradient id="linear-gradient" x1="757.97" y1="1000.54" x2="1236.43" y2="1000.54" gradientUnits="userSpaceOnUse"><stop offset="0" stop-color="#dba73e"/><stop offset="0.16" stop-color="#d89d3a"/><stop offset="0.3" stop-color="#a46b28"/><stop offset="0.49" stop-color="#8e5723"/><stop offset="0.54" stop-color="#f4f3b8"/><stop offset="0.56" stop-color="#f7ed9a"/><stop offset="0.69" stop-color="#d5b767"/><stop offset="0.75" stop-color="#a76f29"/><stop offset="0.85" stop-color="#d0ab5b"/><stop offset="1" stop-color="#e0c77d"/></linearGradient><linearGradient id="linear-gradient-2" x1="789.18" y1="1000.54" x2="1205.22" y2="1000.54" xlink:href="#linear-gradient"/><radialGradient id="radial-gradient" cx="996.81" cy="1000.69" r="203.84" gradientUnits="userSpaceOnUse"><stop offset="0" stop-color="#966e41"/><stop offset="0.15" stop-color="#86623a"/><stop offset="0.44" stop-color="#5d4428"/><stop offset="0.85" stop-color="#1b140c"/><stop offset="1"/></radialGradient><radialGradient id="radial-gradient-2" cx="997.54" cy="999.95" r="110.38" xlink:href="#radial-gradient"/><radialGradient id="radial-gradient-3" cx="1151.1" cy="651.37" r="106.7" gradientTransform="matrix(0.11, 0.31, -0.73, 0.25, 1265.6, 260.97)" gradientUnits="userSpaceOnUse"><stop offset="0" stop-color="#fff"/><stop offset="0.04" stop-color="#e1e1e1"/><stop offset="0.1" stop-color="#b2b2b2"/><stop offset="0.17" stop-color="#888"/><stop offset="0.24" stop-color="#636363"/><stop offset="0.32" stop-color="#444"/><stop offset="0.4" stop-color="#2b2b2b"/><stop offset="0.5" stop-color="#181818"/><stop offset="0.61" stop-color="#0a0a0a"/><stop offset="0.74" stop-color="#020202"/><stop offset="1"/></radialGradient><radialGradient id="radial-gradient-4" cx="2634.27" cy="631.25" r="126.51" gradientTransform="matrix(0.13, 0.3, -0.71, 0.3, 1220.3, 222.88)" gradientUnits="userSpaceOnUse"><stop offset="0" stop-color="#fff"/><stop offset="0.04" stop-color="#d6d6d6"/><stop offset="0.1" stop-color="#a9a9a9"/><stop offset="0.16" stop-color="#818181"/><stop offset="0.23" stop-color="#5e5e5e"/><stop offset="0.3" stop-color="#414141"/><stop offset="0.37" stop-color="#292929"/><stop offset="0.46" stop-color="#161616"/><stop offset="0.57" stop-color="#0a0a0a"/><stop offset="0.71" stop-color="#020202"/><stop offset="1"/></radialGradient><linearGradient id="linear-gradient-3" x1="238.25" y1="96.34" x2="240.23" y2="96.34" xlink:href="#linear-gradient"/><linearGradient id="linear-gradient-4" x1="237.39" y1="96.34" x2="241.09" y2="96.34" xlink:href="#linear-gradient"/><linearGradient id="linear-gradient-5" x1="238.84" y1="96.34" x2="239.65" y2="96.34" xlink:href="#linear-gradient"/><linearGradient id="linear-gradient-6" x1="965.69" y1="835.95" x2="971.39" y2="835.95" gradientTransform="translate(160.49 -155.99) rotate(10.04)" xlink:href="#linear-gradient"/><linearGradient id="linear-gradient-7" x1="966.37" y1="835.95" x2="970.71" y2="835.95" gradientTransform="translate(159.9 -155.51) rotate(10)" xlink:href="#linear-gradient"/><linearGradient id="linear-gradient-8" x1="936.11" y1="843.33" x2="945.35" y2="843.33" gradientTransform="translate(345.47 -271.05) rotate(20.02)" xlink:href="#linear-gradient"/><linearGradient id="linear-gradient-9" x1="936.85" y1="843.33" x2="944.6" y2="843.33" gradientTransform="translate(345.2 -270.91) rotate(20)" xlink:href="#linear-gradient"/><linearGradient id="linear-gradient-10" x1="908.37" y1="855.42" x2="920.87" y2="855.42" gradientTransform="translate(550.2 -342.69) rotate(30)" xlink:href="#linear-gradient"/><linearGradient id="linear-gradient-11" x1="909.16" y1="855.42" x2="920.07" y2="855.42" gradientTransform="translate(550.22 -342.7) rotate(30)" xlink:href="#linear-gradient"/><linearGradient id="linear-gradient-12" x1="883.31" y1="871.87" x2="898.7" y2="871.87" gradientTransform="translate(769.36 -368.8) rotate(40.02)" xlink:href="#linear-gradient"/><linearGradient id="linear-gradient-13" x1="884.13" y1="871.87" x2="897.88" y2="871.87" gradientTransform="translate(768.84 -368.74) rotate(40)" xlink:href="#linear-gradient"/><linearGradient id="linear-gradient-14" x1="861.71" y1="892.17" x2="879.51" y2="892.17" gradientTransform="translate(993.03 -348.37) rotate(49.94)" xlink:href="#linear-gradient"/><linearGradient id="linear-gradient-15" x1="104.56" y1="154.99" x2="120.72" y2="154.99" xlink:href="#linear-gradient"/><linearGradient id="linear-gradient-16" x1="844.21" y1="915.69" x2="863.89" y2="915.69" gradientTransform="translate(1220.14 -281.75) rotate(60)" xlink:href="#linear-gradient"/><linearGradient id="linear-gradient-17" x1="845.01" y1="915.7" x2="863.09" y2="915.7" gradientTransform="translate(1220.09 -281.76) rotate(60)" xlink:href="#linear-gradient"/><linearGradient id="linear-gradient-18" x1="831.35" y1="941.74" x2="852.3" y2="941.74" gradientTransform="translate(1437.9 -171.92) rotate(69.95)" xlink:href="#linear-gradient"/><linearGradient id="linear-gradient-19" x1="74.13" y1="204.57" x2="93.58" y2="204.57" xlink:href="#linear-gradient"/><linearGradient id="linear-gradient-20" x1="823.51" y1="969.52" x2="845.1" y2="969.52" gradientTransform="translate(1643.11 -21.37) rotate(79.94)" xlink:href="#linear-gradient"/><linearGradient id="linear-gradient-21" x1="824.19" y1="969.52" x2="844.43" y2="969.52" gradientTransform="translate(1644.23 -20.46) rotate(80)" xlink:href="#linear-gradient"/><linearGradient id="linear-gradient-22" x1="62.97" y1="261.01" x2="84.55" y2="261.01" xlink:href="#linear-gradient"/><linearGradient id="linear-gradient-23" x1="62.11" y1="261.01" x2="85.41" y2="261.01" xlink:href="#linear-gradient"/><linearGradient id="linear-gradient-24" x1="63.55" y1="261.01" x2="83.97" y2="261.01" xlink:href="#linear-gradient"/><linearGradient id="linear-gradient-25" x1="823.37" y1="1026.85" x2="844.96" y2="1026.85" gradientTransform="translate(190.97 -129.25) rotate(10)" xlink:href="#linear-gradient"/><linearGradient id="linear-gradient-26" x1="66.08" y1="289.68" x2="86.32" y2="289.68" xlink:href="#linear-gradient"/><linearGradient id="linear-gradient-27" x1="831.07" y1="1054.66" x2="852.02" y2="1054.66" gradientTransform="translate(411.56 -224.25) rotate(20)" xlink:href="#linear-gradient"/><linearGradient id="linear-gradient-28" x1="831.82" y1="1054.66" x2="851.27" y2="1054.66" gradientTransform="translate(411.42 -224.21) rotate(20)" xlink:href="#linear-gradient"/><linearGradient id="linear-gradient-29" x1="843.8" y1="1080.77" x2="863.48" y2="1080.77" gradientTransform="translate(654.82 -282.03) rotate(30)" xlink:href="#linear-gradient"/><linearGradient id="linear-gradient-30" x1="844.6" y1="1080.77" x2="862.68" y2="1080.77" gradientTransform="translate(654.89 -282.05) rotate(30.01)" xlink:href="#linear-gradient"/><linearGradient id="linear-gradient-31" x1="861.19" y1="1104.38" x2="878.99" y2="1104.38" gradientTransform="translate(913.58 -300.9) rotate(40.01)" xlink:href="#linear-gradient"/><linearGradient id="linear-gradient-32" x1="104.04" y1="367.21" x2="120.2" y2="367.21" xlink:href="#linear-gradient"/><linearGradient id="linear-gradient-33" x1="882.69" y1="1124.78" x2="898.08" y2="1124.78" gradientTransform="translate(1179.69 -280.29) rotate(50)" xlink:href="#linear-gradient"/><linearGradient id="linear-gradient-34" x1="883.51" y1="1124.78" x2="897.25" y2="1124.78" gradientTransform="matrix(0.64, 0.77, -0.77, 0.64, 1179.8, -280.26)" xlink:href="#linear-gradient"/><linearGradient id="linear-gradient-35" x1="907.66" y1="1141.34" x2="920.16" y2="1141.34" gradientTransform="translate(1445.21 -220.87) rotate(59.99)" xlink:href="#linear-gradient"/><linearGradient id="linear-gradient-36" x1="150.49" y1="404.17" x2="161.4" y2="404.17" xlink:href="#linear-gradient"/><linearGradient id="linear-gradient-37" x1="935.34" y1="1153.56" x2="944.58" y2="1153.56" gradientTransform="translate(1702.39 -124.3) rotate(70)" xlink:href="#linear-gradient"/><linearGradient id="linear-gradient-38" x1="936.09" y1="1153.56" x2="943.84" y2="1153.56" gradientTransform="translate(1700.23 -125.59) rotate(69.9)" xlink:href="#linear-gradient"/><linearGradient id="linear-gradient-39" x1="964.89" y1="1161.08" x2="970.59" y2="1161.08" gradientTransform="translate(1943.05 6.35) rotate(80)" xlink:href="#linear-gradient"/><linearGradient id="linear-gradient-40" x1="965.57" y1="1161.08" x2="969.91" y2="1161.08" gradientTransform="translate(1943.85 7.03) rotate(80.04)" xlink:href="#linear-gradient"/><linearGradient id="linear-gradient-41" x1="237.44" y1="426.49" x2="239.42" y2="426.49" xlink:href="#linear-gradient"/><linearGradient id="linear-gradient-42" x1="236.58" y1="426.49" x2="240.28" y2="426.49" xlink:href="#linear-gradient"/><linearGradient id="linear-gradient-43" x1="238.02" y1="426.49" x2="238.84" y2="426.49" xlink:href="#linear-gradient"/><linearGradient id="linear-gradient-44" x1="1022.22" y1="1161.22" x2="1027.91" y2="1161.22" gradientTransform="translate(215.8 -159.49) rotate(9.94)" xlink:href="#linear-gradient"/><linearGradient id="linear-gradient-45" x1="1022.9" y1="1161.22" x2="1027.24" y2="1161.22" gradientTransform="translate(217.1 -160.29) rotate(9.99)" xlink:href="#linear-gradient"/><linearGradient id="linear-gradient-46" x1="290.29" y1="416.67" x2="299.53" y2="416.67" xlink:href="#linear-gradient"/><linearGradient id="linear-gradient-47" x1="1049.01" y1="1153.84" x2="1056.75" y2="1153.84" gradientTransform="translate(458.06 -290.49) rotate(20)" xlink:href="#linear-gradient"/><linearGradient id="linear-gradient-48" x1="1072.74" y1="1141.74" x2="1085.24" y2="1141.74" gradientTransform="translate(716.51 -386.79) rotate(30.04)" xlink:href="#linear-gradient"/><linearGradient id="linear-gradient-49" x1="315.57" y1="404.57" x2="326.48" y2="404.57" xlink:href="#linear-gradient"/><linearGradient id="linear-gradient-50" x1="1094.91" y1="1125.3" x2="1110.3" y2="1125.3" gradientTransform="translate(980.88 -445.44) rotate(39.99)" xlink:href="#linear-gradient"/><linearGradient id="linear-gradient-51" x1="1095.73" y1="1125.3" x2="1109.47" y2="1125.3" gradientTransform="translate(981.7 -445.5) rotate(40.02)" xlink:href="#linear-gradient"/><linearGradient id="linear-gradient-52" x1="1114.1" y1="1105" x2="1131.9" y2="1105" gradientTransform="translate(1251.47 -465.23) rotate(50.14)" xlink:href="#linear-gradient"/><linearGradient id="linear-gradient-53" x1="1114.92" y1="1105" x2="1131.08" y2="1105" gradientTransform="matrix(0.64, 0.77, -0.77, 0.64, 1247.56, -465.55)" xlink:href="#linear-gradient"/><linearGradient id="linear-gradient-54" x1="1129.72" y1="1081.47" x2="1149.4" y2="1081.47" gradientTransform="translate(1506.89 -446.02) rotate(60.02)" xlink:href="#linear-gradient"/><linearGradient id="linear-gradient-55" x1="1130.52" y1="1081.47" x2="1148.6" y2="1081.47" gradientTransform="translate(1506.43 -446.13) rotate(60)" xlink:href="#linear-gradient"/><linearGradient id="linear-gradient-56" x1="1141.31" y1="1055.42" x2="1162.26" y2="1055.42" gradientTransform="translate(1749.63 -387.87) rotate(70)" xlink:href="#linear-gradient"/><linearGradient id="linear-gradient-57" x1="1142.05" y1="1055.42" x2="1161.51" y2="1055.42" gradientTransform="translate(1749.68 -387.85) rotate(70)" xlink:href="#linear-gradient"/><linearGradient id="linear-gradient-58" x1="1148.5" y1="1027.65" x2="1170.1" y2="1027.65" gradientTransform="translate(1970.82 -292) rotate(80.03)" xlink:href="#linear-gradient"/><linearGradient id="linear-gradient-59" x1="391.21" y1="290.48" x2="411.46" y2="290.48" xlink:href="#linear-gradient"/><linearGradient id="linear-gradient-60" x1="393.12" y1="261.82" x2="414.7" y2="261.82" xlink:href="#linear-gradient"/><linearGradient id="linear-gradient-61" x1="392.26" y1="261.82" x2="415.56" y2="261.82" xlink:href="#linear-gradient"/><linearGradient id="linear-gradient-62" x1="393.7" y1="261.82" x2="414.12" y2="261.82" xlink:href="#linear-gradient"/><linearGradient id="linear-gradient-63" x1="1148.64" y1="970.32" x2="1170.24" y2="970.32" gradientTransform="translate(186.21 -186.68) rotate(10)" xlink:href="#linear-gradient"/><linearGradient id="linear-gradient-64" x1="391.35" y1="233.15" x2="411.6" y2="233.15" xlink:href="#linear-gradient"/><linearGradient id="linear-gradient-65" x1="1141.58" y1="942.51" x2="1162.54" y2="942.51" gradientTransform="translate(391.96 -337.26) rotate(20.01)" xlink:href="#linear-gradient"/><linearGradient id="linear-gradient-66" x1="1142.33" y1="942.51" x2="1161.79" y2="942.51" gradientTransform="translate(391.73 -337.13) rotate(20)" xlink:href="#linear-gradient"/><linearGradient id="linear-gradient-67" x1="1130.13" y1="916.4" x2="1149.8" y2="916.4" gradientTransform="translate(610.86 -447.18) rotate(30)" xlink:href="#linear-gradient"/><linearGradient id="linear-gradient-68" x1="372.95" y1="179.23" x2="391.04" y2="179.23" xlink:href="#linear-gradient"/><linearGradient id="linear-gradient-69" x1="1114.62" y1="892.79" x2="1132.42" y2="892.79" gradientTransform="translate(836.73 -513.31) rotate(40)" xlink:href="#linear-gradient"/><linearGradient id="linear-gradient-70" x1="1115.44" y1="892.79" x2="1131.6" y2="892.79" gradientTransform="translate(832.98 -512.54) rotate(39.85)" xlink:href="#linear-gradient"/><linearGradient id="linear-gradient-71" x1="337.56" y1="135.22" x2="352.95" y2="135.22" xlink:href="#linear-gradient"/><linearGradient id="linear-gradient-72" x1="1096.35" y1="872.39" x2="1110.09" y2="872.39" gradientTransform="translate(1061.48 -533.46) rotate(49.96)" xlink:href="#linear-gradient"/><linearGradient id="linear-gradient-73" x1="1073.44" y1="855.83" x2="1085.94" y2="855.83" gradientTransform="translate(1281.04 -507.12) rotate(60)" xlink:href="#linear-gradient"/><linearGradient id="linear-gradient-74" x1="1074.24" y1="855.83" x2="1085.15" y2="855.83" gradientTransform="translate(1278.21 -507.54) rotate(59.88)" xlink:href="#linear-gradient"/><linearGradient id="linear-gradient-75" x1="1049.02" y1="843.6" x2="1058.26" y2="843.6" gradientTransform="translate(1485.86 -435.08) rotate(69.99)" xlink:href="#linear-gradient"/><linearGradient id="linear-gradient-76" x1="1049.77" y1="843.6" x2="1057.52" y2="843.6" gradientTransform="translate(1488.07 -434.33) rotate(70.09)" xlink:href="#linear-gradient"/><linearGradient id="linear-gradient-77" x1="1023.02" y1="836.09" x2="1028.71" y2="836.09" gradientTransform="translate(1671.08 -319.4) rotate(80)" xlink:href="#linear-gradient"/><linearGradient id="linear-gradient-78" x1="1023.7" y1="836.09" x2="1028.04" y2="836.09" gradientTransform="translate(1670.18 -319.9) rotate(79.95)" xlink:href="#linear-gradient"/><linearGradient id="linear-gradient-79" x1="1005.02" y1="828.95" x2="1006.5" y2="828.95" xlink:href="#linear-gradient"/><linearGradient id="linear-gradient-80" x1="974.93" y1="829.99" x2="977.4" y2="829.99" xlink:href="#linear-gradient"/><linearGradient id="linear-gradient-81" x1="944.85" y1="836.1" x2="949.55" y2="836.1" xlink:href="#linear-gradient"/><linearGradient id="linear-gradient-82" x1="916.33" y1="847.2" x2="923.16" y2="847.2" xlink:href="#linear-gradient"/><linearGradient id="linear-gradient-83" x1="890.26" y1="862.88" x2="898.98" y2="862.88" xlink:href="#linear-gradient"/><linearGradient id="linear-gradient-84" x1="867.44" y1="882.69" x2="877.81" y2="882.69" xlink:href="#linear-gradient"/><linearGradient id="linear-gradient-85" x1="848.54" y1="906.02" x2="860.22" y2="906.02" xlink:href="#linear-gradient"/><linearGradient id="linear-gradient-86" x1="834.15" y1="932.14" x2="846.75" y2="932.14" xlink:href="#linear-gradient"/><linearGradient id="linear-gradient-87" x1="824.69" y1="960.31" x2="837.92" y2="960.31" xlink:href="#linear-gradient"/><linearGradient id="linear-gradient-88" x1="820.47" y1="989.63" x2="833.87" y2="989.63" xlink:href="#linear-gradient"/><linearGradient id="linear-gradient-89" x1="821.51" y1="1019.22" x2="834.9" y2="1019.22" xlink:href="#linear-gradient"/><linearGradient id="linear-gradient-90" x1="827.83" y1="1048.19" x2="840.81" y2="1048.19" xlink:href="#linear-gradient"/><linearGradient id="linear-gradient-91" x1="839.28" y1="1075.64" x2="851.56" y2="1075.64" xlink:href="#linear-gradient"/><linearGradient id="linear-gradient-92" x1="855.52" y1="1100.76" x2="866.68" y2="1100.76" xlink:href="#linear-gradient"/><linearGradient id="linear-gradient-93" x1="876.06" y1="1122.76" x2="885.77" y2="1122.76" xlink:href="#linear-gradient"/><linearGradient id="linear-gradient-94" x1="900.26" y1="1141" x2="908.21" y2="1141" xlink:href="#linear-gradient"/><linearGradient id="linear-gradient-95" x1="927.4" y1="1154.94" x2="933.33" y2="1154.94" xlink:href="#linear-gradient"/><linearGradient id="linear-gradient-96" x1="956.64" y1="1164.08" x2="960.42" y2="1164.08" xlink:href="#linear-gradient"/><linearGradient id="linear-gradient-97" x1="987.1" y1="1168.21" x2="988.59" y2="1168.21" xlink:href="#linear-gradient"/><linearGradient id="linear-gradient-98" x1="1016.2" y1="1167.18" x2="1018.68" y2="1167.18" xlink:href="#linear-gradient"/><linearGradient id="linear-gradient-99" x1="1044.05" y1="1161.07" x2="1048.76" y2="1161.07" xlink:href="#linear-gradient"/><linearGradient id="linear-gradient-100" x1="1070.45" y1="1149.96" x2="1077.27" y2="1149.96" xlink:href="#linear-gradient"/><linearGradient id="linear-gradient-101" x1="1094.63" y1="1134.29" x2="1103.34" y2="1134.29" xlink:href="#linear-gradient"/><linearGradient id="linear-gradient-102" x1="1115.79" y1="1114.47" x2="1126.17" y2="1114.47" xlink:href="#linear-gradient"/><linearGradient id="linear-gradient-103" x1="1133.39" y1="1091.15" x2="1145.07" y2="1091.15" xlink:href="#linear-gradient"/><linearGradient id="linear-gradient-104" x1="1146.86" y1="1065.03" x2="1159.46" y2="1065.03" xlink:href="#linear-gradient"/><linearGradient id="linear-gradient-105" x1="1155.69" y1="1036.86" x2="1168.91" y2="1036.86" xlink:href="#linear-gradient"/><linearGradient id="linear-gradient-106" x1="1159.74" y1="1007.54" x2="1173.13" y2="1007.54" xlink:href="#linear-gradient"/><linearGradient id="linear-gradient-107" x1="1158.7" y1="977.95" x2="1172.1" y2="977.95" xlink:href="#linear-gradient"/><linearGradient id="linear-gradient-108" x1="1152.8" y1="948.98" x2="1165.78" y2="948.98" xlink:href="#linear-gradient"/><linearGradient id="linear-gradient-109" x1="1142.04" y1="921.52" x2="1154.33" y2="921.52" xlink:href="#linear-gradient"/><linearGradient id="linear-gradient-110" x1="1126.92" y1="896.4" x2="1138.08" y2="896.4" xlink:href="#linear-gradient"/><linearGradient id="linear-gradient-111" x1="1107.84" y1="874.41" x2="1117.55" y2="874.41" xlink:href="#linear-gradient"/><linearGradient id="linear-gradient-112" x1="1085.39" y1="856.16" x2="1093.34" y2="856.16" xlink:href="#linear-gradient"/><linearGradient id="linear-gradient-113" x1="1060.28" y1="842.23" x2="1066.21" y2="842.23" xlink:href="#linear-gradient"/><linearGradient id="linear-gradient-114" x1="1033.19" y1="833.09" x2="1036.97" y2="833.09" xlink:href="#linear-gradient"/><linearGradient id="linear-gradient-115" x1="1015.94" y1="829.95" x2="1018.32" y2="829.95" xlink:href="#linear-gradient"/><linearGradient id="linear-gradient-116" x1="986.74" y1="828.97" x2="988.32" y2="828.97" xlink:href="#linear-gradient"/><linearGradient id="linear-gradient-117" x1="956.29" y1="833.16" x2="960.15" y2="833.16" xlink:href="#linear-gradient"/><linearGradient id="linear-gradient-118" x1="927.07" y1="842.35" x2="933.08" y2="842.35" xlink:href="#linear-gradient"/><linearGradient id="linear-gradient-119" x1="899.96" y1="856.33" x2="907.99" y2="856.33" xlink:href="#linear-gradient"/><linearGradient id="linear-gradient-120" x1="875.8" y1="874.62" x2="885.57" y2="874.62" xlink:href="#linear-gradient"/><linearGradient id="linear-gradient-121" x1="855.31" y1="896.65" x2="866.51" y2="896.65" xlink:href="#linear-gradient"/><linearGradient id="linear-gradient-122" x1="839.12" y1="921.8" x2="851.44" y2="921.8" xlink:href="#linear-gradient"/><linearGradient id="linear-gradient-123" x1="827.73" y1="949.28" x2="840.73" y2="949.28" xlink:href="#linear-gradient"/><linearGradient id="linear-gradient-124" x1="821.47" y1="978.26" x2="834.87" y2="978.26" xlink:href="#linear-gradient"/><linearGradient id="linear-gradient-125" x1="820.49" y1="1007.85" x2="833.89" y2="1007.85" xlink:href="#linear-gradient"/><linearGradient id="linear-gradient-126" x1="824.78" y1="1037.17" x2="837.98" y2="1037.17" xlink:href="#linear-gradient"/><linearGradient id="linear-gradient-127" x1="834.29" y1="1065.31" x2="846.86" y2="1065.31" xlink:href="#linear-gradient"/><linearGradient id="linear-gradient-128" x1="848.73" y1="1091.42" x2="860.37" y2="1091.42" xlink:href="#linear-gradient"/><linearGradient id="linear-gradient-129" x1="867.68" y1="1114.7" x2="878" y2="1114.7" xlink:href="#linear-gradient"/><linearGradient id="linear-gradient-130" x1="890.55" y1="1134.47" x2="899.19" y2="1134.47" xlink:href="#linear-gradient"/><linearGradient id="linear-gradient-131" x1="916.65" y1="1150.11" x2="923.39" y2="1150.11" xlink:href="#linear-gradient"/><linearGradient id="linear-gradient-132" x1="945.19" y1="1161.16" x2="949.81" y2="1161.16" xlink:href="#linear-gradient"/><linearGradient id="linear-gradient-133" x1="975.29" y1="1167.22" x2="977.67" y2="1167.22" xlink:href="#linear-gradient"/><linearGradient id="linear-gradient-134" x1="1005.29" y1="1168.2" x2="1006.86" y2="1168.2" xlink:href="#linear-gradient"/><linearGradient id="linear-gradient-135" x1="1033.45" y1="1164.01" x2="1037.32" y2="1164.01" xlink:href="#linear-gradient"/><linearGradient id="linear-gradient-136" x1="1060.53" y1="1154.81" x2="1066.54" y2="1154.81" xlink:href="#linear-gradient"/><linearGradient id="linear-gradient-137" x1="1085.62" y1="1140.83" x2="1093.65" y2="1140.83" xlink:href="#linear-gradient"/><linearGradient id="linear-gradient-138" x1="1108.03" y1="1122.54" x2="1117.81" y2="1122.54" xlink:href="#linear-gradient"/><linearGradient id="linear-gradient-139" x1="1127.09" y1="1100.52" x2="1138.3" y2="1100.52" xlink:href="#linear-gradient"/><linearGradient id="linear-gradient-140" x1="1142.17" y1="1075.36" x2="1154.48" y2="1075.36" xlink:href="#linear-gradient"/><linearGradient id="linear-gradient-141" x1="1152.87" y1="1047.89" x2="1165.88" y2="1047.89" xlink:href="#linear-gradient"/><linearGradient id="linear-gradient-142" x1="1158.74" y1="1018.91" x2="1172.13" y2="1018.91" xlink:href="#linear-gradient"/><linearGradient id="linear-gradient-143" x1="1159.72" y1="989.31" x2="1173.11" y2="989.31" xlink:href="#linear-gradient"/><linearGradient id="linear-gradient-144" x1="1155.63" y1="960" x2="1168.84" y2="960" xlink:href="#linear-gradient"/><linearGradient id="linear-gradient-145" x1="1146.75" y1="931.85" x2="1159.32" y2="931.85" xlink:href="#linear-gradient"/><linearGradient id="linear-gradient-146" x1="1133.24" y1="905.75" x2="1144.87" y2="905.75" xlink:href="#linear-gradient"/><linearGradient id="linear-gradient-147" x1="1115.61" y1="882.47" x2="1125.93" y2="882.47" xlink:href="#linear-gradient"/><linearGradient id="linear-gradient-148" x1="1094.42" y1="862.69" x2="1103.05" y2="862.69" xlink:href="#linear-gradient"/><linearGradient id="linear-gradient-149" x1="1070.21" y1="847.06" x2="1076.96" y2="847.06" xlink:href="#linear-gradient"/><linearGradient id="linear-gradient-150" x1="1043.8" y1="836.01" x2="1048.42" y2="836.01" xlink:href="#linear-gradient"/><linearGradient id="linear-gradient-151" x1="910.71" y1="998.58" x2="1082.9" y2="998.58" xlink:href="#linear-gradient"/><linearGradient id="linear-gradient-152" x1="820.2" y1="998.58" x2="1173.41" y2="998.58" xlink:href="#linear-gradient"/><linearGradient id="Áåçûìÿííûé_ãðàäèåíò_73" x1="1137.63" y1="975.19" x2="998.52" y2="814.43" gradientUnits="userSpaceOnUse"><stop offset="0.09" stop-color="#f7f0e2"/><stop offset="0.99" stop-color="#c2b59b"/></linearGradient><linearGradient id="Áåçûìÿííûé_ãðàäèåíò_73-2" x1="1181.38" y1="937.39" x2="1042.23" y2="776.59" xlink:href="#Áåçûìÿííûé_ãðàäèåíò_73"/><linearGradient id="Áåçûìÿííûé_ãðàäèåíò_73-3" x1="1184" y1="935.08" x2="1044.88" y2="774.32" xlink:href="#Áåçûìÿííûé_ãðàäèåíò_73"/><linearGradient id="Áåçûìÿííûé_ãðàäèåíò_73-4" x1="1186.43" y1="932.98" x2="1047.31" y2="772.23" xlink:href="#Áåçûìÿííûé_ãðàäèåíò_73"/><linearGradient id="Áåçûìÿííûé_ãðàäèåíò_73-5" x1="1184.65" y1="934.52" x2="1045.54" y2="773.77" xlink:href="#Áåçûìÿííûé_ãðàäèåíò_73"/><linearGradient id="Áåçûìÿííûé_ãðàäèåíò_73-6" x1="1153.48" y1="961.48" x2="1014.33" y2="800.69" xlink:href="#Áåçûìÿííûé_ãðàäèåíò_73"/><linearGradient id="Áåçûìÿííûé_ãðàäèåíò_73-7" x1="1147.21" y1="966.91" x2="1008.08" y2="806.14" xlink:href="#Áåçûìÿííûé_ãðàäèåíò_73"/><linearGradient id="Áåçûìÿííûé_ãðàäèåíò_73-8" x1="1092.45" y1="1014.3" x2="953.33" y2="853.53" xlink:href="#Áåçûìÿííûé_ãðàäèåíò_73"/><linearGradient id="Áåçûìÿííûé_ãðàäèåíò_73-9" x1="1084.52" y1="1021.17" x2="945.4" y2="860.41" xlink:href="#Áåçûìÿííûé_ãðàäèåíò_73"/><linearGradient id="Áåçûìÿííûé_ãðàäèåíò_73-10" x1="1076.13" y1="1028.41" x2="936.99" y2="867.63" xlink:href="#Áåçûìÿííûé_ãðàäèåíò_73"/><linearGradient id="Áåçûìÿííûé_ãðàäèåíò_73-11" x1="1019.45" y1="1077.49" x2="880.34" y2="916.74" xlink:href="#Áåçûìÿííûé_ãðàäèåíò_73"/><linearGradient id="Áåçûìÿííûé_ãðàäèåíò_73-12" x1="1010.49" y1="1085.24" x2="871.36" y2="924.47" xlink:href="#Áåçûìÿííûé_ãðàäèåíò_73"/><linearGradient id="Áåçûìÿííûé_ãðàäèåíò_73-13" x1="1001.76" y1="1092.77" x2="862.63" y2="931.99" xlink:href="#Áåçûìÿííûé_ãðàäèåíò_73"/><linearGradient id="Áåçûìÿííûé_ãðàäèåíò_73-14" x1="957.8" y1="1130.83" x2="818.68" y2="970.07" xlink:href="#Áåçûìÿííûé_ãðàäèåíò_73"/><linearGradient id="Áåçûìÿííûé_ãðàäèåíò_73-15" x1="950.44" y1="1137.2" x2="811.31" y2="976.43" xlink:href="#Áåçûìÿííûé_ãðàäèåíò_73"/><linearGradient id="Áåçûìÿííûé_ãðàäèåíò_73-16" x1="943.91" y1="1142.85" x2="804.79" y2="982.09" xlink:href="#Áåçûìÿííûé_ãðàäèåíò_73"/><linearGradient id="Áåçûìÿííûé_ãðàäèåíò_73-17" x1="912.52" y1="1170.02" x2="773.42" y2="1009.28" xlink:href="#Áåçûìÿííûé_ãðàäèåíò_73"/><linearGradient id="Áåçûìÿííûé_ãðàäèåíò_73-18" x1="909.23" y1="1172.86" x2="770.1" y2="1012.09" xlink:href="#Áåçûìÿííûé_ãðàäèåíò_73"/><linearGradient id="Áåçûìÿííûé_ãðàäèåíò_73-19" x1="906.38" y1="1175.33" x2="767.26" y2="1014.57" xlink:href="#Áåçûìÿííûé_ãðàäèåíò_73"/><linearGradient id="Áåçûìÿííûé_ãðàäèåíò_73-20" x1="902.21" y1="1178.93" x2="763.1" y2="1018.18" xlink:href="#Áåçûìÿííûé_ãðàäèåíò_73"/><linearGradient id="Áåçûìÿííûé_ãðàäèåíò_73-21" x1="903.63" y1="1177.75" x2="764.46" y2="1016.94" xlink:href="#Áåçûìÿííûé_ãðàäèåíò_73"/><linearGradient id="Áåçûìÿííûé_ãðàäèåíò_73-22" x1="905.11" y1="1176.42" x2="765.99" y2="1015.67" xlink:href="#Áåçûìÿííûé_ãðàäèåíò_73"/><linearGradient id="Áåçûìÿííûé_ãðàäèåíò_73-23" x1="931.72" y1="1153.38" x2="792.61" y2="992.63" xlink:href="#Áåçûìÿííûé_ãðàäèåíò_73"/><linearGradient id="Áåçûìÿííûé_ãðàäèåíò_73-24" x1="935.81" y1="1149.84" x2="796.7" y2="989.09" xlink:href="#Áåçûìÿííûé_ãðàäèåíò_73"/><linearGradient id="Áåçûìÿííûé_ãðàäèåíò_73-25" x1="942.78" y1="1143.83" x2="803.66" y2="983.07" xlink:href="#Áåçûìÿííûé_ãðàäèåíò_73"/><linearGradient id="Áåçûìÿííûé_ãðàäèåíò_73-26" x1="993.39" y1="1100.01" x2="854.28" y2="939.26" xlink:href="#Áåçûìÿííûé_ãðàäèåíò_73"/><linearGradient id="Áåçûìÿííûé_ãðàäèåíò_73-27" x1="1001.9" y1="1092.68" x2="862.78" y2="931.91" xlink:href="#Áåçûìÿííûé_ãðàäèåíò_73"/><linearGradient id="Áåçûìÿííûé_ãðàäèåíò_73-28" x1="1010.34" y1="1085.36" x2="871.22" y2="924.6" xlink:href="#Áåçûìÿííûé_ãðàäèåíò_73"/><linearGradient id="Áåçûìÿííûé_ãðàäèåíò_73-29" x1="1063.72" y1="1039.18" x2="924.6" y2="878.41" xlink:href="#Áåçûìÿííûé_ãðàäèåíò_73"/><linearGradient id="Áåçûìÿííûé_ãðàäèåíò_73-30" x1="1072.33" y1="1031.73" x2="933.2" y2="870.96" xlink:href="#Áåçûìÿííûé_ãðàäèåíò_73"/><linearGradient id="Áåçûìÿííûé_ãðàäèåíò_73-31" x1="1081.35" y1="1023.94" x2="942.22" y2="863.16" xlink:href="#Áåçûìÿííûé_ãðàäèåíò_73"/></defs><g class="cls-1"><g id="Layer_1" data-name="Layer 1"><path class="cls-2" d="M997.19,1239.76c-131.91,0-239.22-107.31-239.22-239.21S865.28,761.31,997.19,761.31s239.24,107.32,239.24,239.24S1129.11,1239.76,997.19,1239.76Zm0-475.87c-130.49,0-236.65,106.17-236.65,236.66s106.16,236.64,236.65,236.64,236.66-106.16,236.66-236.64S1127.68,763.89,997.19,763.89Z" transform="translate(-757.97 -737.17)"/><g class="cls-3"><path class="cls-4" d="M1037.55,1246.4c-113.31,0-205.5-92.21-205.5-205.49s92.19-205.5,205.5-205.5S1243,927.59,1243,1040.91,1150.86,1246.4,1037.55,1246.4Z" transform="translate(-757.97 -737.17)"/><path class="cls-5" d="M1037,1245.83c-113.31,0-205.5-92.21-205.5-205.49S923.67,834.85,1037,834.85s205.48,92.17,205.48,205.49S1150.29,1245.83,1037,1245.83Z" transform="translate(-757.97 -737.17)"/><path class="cls-6" d="M1036.41,1245.27c-113.3,0-205.49-92.22-205.49-205.5s92.19-205.49,205.49-205.49,205.49,92.17,205.49,205.49S1149.72,1245.27,1036.41,1245.27Z" transform="translate(-757.97 -737.17)"/><path class="cls-7" d="M1035.84,1244.7c-113.3,0-205.49-92.21-205.49-205.49s92.19-205.5,205.49-205.5,205.49,92.18,205.49,205.5S1149.15,1244.7,1035.84,1244.7Z" transform="translate(-757.97 -737.17)"/><path class="cls-8" d="M1035.27,1244.13c-113.3,0-205.49-92.21-205.49-205.49s92.19-205.5,205.49-205.5,205.49,92.18,205.49,205.5S1148.58,1244.13,1035.27,1244.13Z" transform="translate(-757.97 -737.17)"/><path class="cls-9" d="M1034.7,1243.56c-113.3,0-205.49-92.21-205.49-205.49s92.19-205.5,205.49-205.5,205.49,92.18,205.49,205.5S1148,1243.56,1034.7,1243.56Z" transform="translate(-757.97 -737.17)"/><path class="cls-10" d="M1034.14,1243c-113.31,0-205.5-92.21-205.5-205.49S920.83,832,1034.14,832s205.48,92.18,205.48,205.5S1147.45,1243,1034.14,1243Z" transform="translate(-757.97 -737.17)"/><path class="cls-11" d="M1033.57,1242.42c-113.31,0-205.49-92.21-205.49-205.49s92.18-205.5,205.49-205.5,205.48,92.18,205.48,205.5S1146.88,1242.42,1033.57,1242.42Z" transform="translate(-757.97 -737.17)"/><path class="cls-12" d="M1033,1241.85c-113.3,0-205.49-92.21-205.49-205.49S919.7,830.87,1033,830.87s205.49,92.17,205.49,205.49S1146.31,1241.85,1033,1241.85Z" transform="translate(-757.97 -737.17)"/><path class="cls-13" d="M1032.43,1241.28c-113.3,0-205.49-92.2-205.49-205.48s92.19-205.5,205.49-205.5,205.49,92.18,205.49,205.5S1145.74,1241.28,1032.43,1241.28Z" transform="translate(-757.97 -737.17)"/><path class="cls-14" d="M1031.86,1240.72c-113.3,0-205.49-92.21-205.49-205.49s92.19-205.5,205.49-205.5,205.49,92.18,205.49,205.5S1145.17,1240.72,1031.86,1240.72Z" transform="translate(-757.97 -737.17)"/><path class="cls-15" d="M1031.29,1240.15c-113.3,0-205.49-92.21-205.49-205.49s92.19-205.5,205.49-205.5,205.49,92.18,205.49,205.5S1144.61,1240.15,1031.29,1240.15Z" transform="translate(-757.97 -737.17)"/><path class="cls-16" d="M1030.73,1239.58c-113.31,0-205.5-92.21-205.5-205.49s92.19-205.5,205.5-205.5,205.48,92.18,205.48,205.5S1144,1239.58,1030.73,1239.58Z" transform="translate(-757.97 -737.17)"/><path class="cls-17" d="M1030.16,1239c-113.31,0-205.49-92.21-205.49-205.49S916.85,828,1030.16,828s205.48,92.18,205.48,205.5S1143.47,1239,1030.16,1239Z" transform="translate(-757.97 -737.17)"/><path class="cls-18" d="M1029.59,1238.44c-113.3,0-205.49-92.2-205.49-205.49s92.19-205.49,205.49-205.49,205.49,92.17,205.49,205.49S1142.9,1238.44,1029.59,1238.44Z" transform="translate(-757.97 -737.17)"/><path class="cls-19" d="M1029,1237.87c-113.3,0-205.49-92.2-205.49-205.49S915.72,826.89,1029,826.89s205.49,92.17,205.49,205.49S1142.33,1237.87,1029,1237.87Z" transform="translate(-757.97 -737.17)"/><path class="cls-20" d="M1028.45,1237.3c-113.3,0-205.49-92.2-205.49-205.48s92.19-205.5,205.49-205.5,205.49,92.18,205.49,205.5S1141.76,1237.3,1028.45,1237.3Z" transform="translate(-757.97 -737.17)"/><path class="cls-21" d="M1027.88,1236.74c-113.3,0-205.49-92.21-205.49-205.49s92.19-205.5,205.49-205.5,205.49,92.18,205.49,205.5S1141.2,1236.74,1027.88,1236.74Z" transform="translate(-757.97 -737.17)"/><path class="cls-22" d="M1027.32,1236.17c-113.31,0-205.49-92.21-205.49-205.49s92.18-205.5,205.49-205.5,205.48,92.18,205.48,205.5S1140.63,1236.17,1027.32,1236.17Z" transform="translate(-757.97 -737.17)"/><path class="cls-23" d="M1026.75,1235.6c-113.31,0-205.49-92.2-205.49-205.49s92.18-205.5,205.49-205.5,205.48,92.18,205.48,205.5S1140.06,1235.6,1026.75,1235.6Z" transform="translate(-757.97 -737.17)"/><path class="cls-24" d="M1026.18,1235c-113.3,0-205.49-92.2-205.49-205.49S912.88,824,1026.18,824s205.49,92.18,205.49,205.5S1139.49,1235,1026.18,1235Z" transform="translate(-757.97 -737.17)"/><path class="cls-25" d="M1025.61,1234.46c-113.3,0-205.49-92.2-205.49-205.49s92.19-205.49,205.49-205.49S1231.1,915.65,1231.1,1029,1138.92,1234.46,1025.61,1234.46Z" transform="translate(-757.97 -737.17)"/><path class="cls-26" d="M1025,1233.89c-113.3,0-205.49-92.2-205.49-205.48s92.19-205.5,205.49-205.5,205.49,92.18,205.49,205.5S1138.36,1233.89,1025,1233.89Z" transform="translate(-757.97 -737.17)"/><path class="cls-27" d="M1024.47,1233.32c-113.3,0-205.49-92.2-205.49-205.48s92.19-205.5,205.49-205.5S1230,914.52,1230,1027.84,1137.79,1233.32,1024.47,1233.32Z" transform="translate(-757.97 -737.17)"/><path class="cls-28" d="M1023.9,1232.76c-113.3,0-205.48-92.2-205.48-205.49s92.18-205.5,205.48-205.5,205.49,92.18,205.49,205.5S1137.22,1232.76,1023.9,1232.76Z" transform="translate(-757.97 -737.17)"/><path class="cls-29" d="M1023.34,1232.19c-113.31,0-205.49-92.2-205.49-205.49S910,821.2,1023.34,821.2s205.48,92.18,205.48,205.5S1136.65,1232.19,1023.34,1232.19Z" transform="translate(-757.97 -737.17)"/><path class="cls-30" d="M1022.77,1231.62c-113.3,0-205.49-92.2-205.49-205.49s92.19-205.5,205.49-205.5,205.49,92.18,205.49,205.5S1136.08,1231.62,1022.77,1231.62Z" transform="translate(-757.97 -737.17)"/><path class="cls-31" d="M1022.2,1231.05c-113.3,0-205.49-92.2-205.49-205.49s92.19-205.5,205.49-205.5,205.49,92.18,205.49,205.5S1135.51,1231.05,1022.2,1231.05Z" transform="translate(-757.97 -737.17)"/><path class="cls-32" d="M1021.63,1230.48c-113.3,0-205.49-92.2-205.49-205.49S908.33,819.5,1021.63,819.5s205.49,92.17,205.49,205.49S1135,1230.48,1021.63,1230.48Z" transform="translate(-757.97 -737.17)"/><path class="cls-33" d="M1021.06,1229.91c-113.3,0-205.48-92.19-205.48-205.48s92.18-205.5,205.48-205.5,205.49,92.18,205.49,205.5S1134.38,1229.91,1021.06,1229.91Z" transform="translate(-757.97 -737.17)"/><path class="cls-34" d="M1020.49,1229.34c-113.3,0-205.48-92.19-205.48-205.48s92.18-205.5,205.48-205.5S1226,910.54,1226,1023.86,1133.81,1229.34,1020.49,1229.34Z" transform="translate(-757.97 -737.17)"/><path class="cls-35" d="M1019.93,1228.77c-113.31,0-205.49-92.19-205.49-205.48s92.18-205.5,205.49-205.5,205.48,92.18,205.48,205.5S1133.24,1228.77,1019.93,1228.77Z" transform="translate(-757.97 -737.17)"/><path class="cls-36" d="M1019.36,1228.21c-113.3,0-205.49-92.2-205.49-205.49s92.19-205.5,205.49-205.5,205.49,92.18,205.49,205.5S1132.67,1228.21,1019.36,1228.21Z" transform="translate(-757.97 -737.17)"/><path class="cls-37" d="M1018.79,1227.64c-113.3,0-205.49-92.2-205.49-205.49s92.19-205.5,205.49-205.5,205.49,92.18,205.49,205.5S1132.1,1227.64,1018.79,1227.64Z" transform="translate(-757.97 -737.17)"/><path class="cls-38" d="M1018.22,1227.07c-113.3,0-205.49-92.2-205.49-205.49s92.19-205.5,205.49-205.5,205.49,92.18,205.49,205.5S1131.54,1227.07,1018.22,1227.07Z" transform="translate(-757.97 -737.17)"/><path class="cls-39" d="M1017.65,1226.5c-113.3,0-205.48-92.19-205.48-205.48s92.18-205.5,205.48-205.5,205.49,92.18,205.49,205.5S1131,1226.5,1017.65,1226.5Z" transform="translate(-757.97 -737.17)"/><path class="cls-40" d="M1017.08,1225.93c-113.3,0-205.48-92.19-205.48-205.48S903.78,815,1017.08,815s205.49,92.18,205.49,205.5S1130.4,1225.93,1017.08,1225.93Z" transform="translate(-757.97 -737.17)"/><path class="cls-41" d="M1016.52,1225.36c-113.31,0-205.49-92.19-205.49-205.48s92.18-205.5,205.49-205.5S1222,906.56,1222,1019.88,1129.83,1225.36,1016.52,1225.36Z" transform="translate(-757.97 -737.17)"/><path class="cls-42" d="M1016,1224.79c-113.3,0-205.49-92.19-205.49-205.48s92.19-205.5,205.49-205.5,205.49,92.18,205.49,205.5S1129.26,1224.79,1016,1224.79Z" transform="translate(-757.97 -737.17)"/><path class="cls-43" d="M1015.38,1224.23c-113.3,0-205.49-92.2-205.49-205.49s92.19-205.5,205.49-205.5,205.49,92.18,205.49,205.5S1128.69,1224.23,1015.38,1224.23Z" transform="translate(-757.97 -737.17)"/><path class="cls-44" d="M1014.81,1223.66c-113.3,0-205.48-92.19-205.48-205.49s92.18-205.5,205.48-205.5,205.49,92.18,205.49,205.5S1128.13,1223.66,1014.81,1223.66Z" transform="translate(-757.97 -737.17)"/><path class="cls-45" d="M1014.24,1223.09c-113.3,0-205.48-92.19-205.48-205.49s92.18-205.49,205.48-205.49,205.49,92.17,205.49,205.49S1127.56,1223.09,1014.24,1223.09Z" transform="translate(-757.97 -737.17)"/><path class="cls-46" d="M1013.67,1222.52c-113.3,0-205.48-92.19-205.48-205.48s92.18-205.5,205.48-205.5,205.49,92.18,205.49,205.5S1127,1222.52,1013.67,1222.52Z" transform="translate(-757.97 -737.17)"/><path class="cls-47" d="M1013.11,1222c-113.31,0-205.49-92.19-205.49-205.48S899.8,811,1013.11,811s205.49,92.18,205.49,205.5S1126.42,1222,1013.11,1222Z" transform="translate(-757.97 -737.17)"/><path class="cls-48" d="M1012.54,1221.38c-113.3,0-205.49-92.19-205.49-205.48s92.19-205.5,205.49-205.5S1218,902.58,1218,1015.9,1125.85,1221.38,1012.54,1221.38Z" transform="translate(-757.97 -737.17)"/><path class="cls-49" d="M1012,1220.81c-113.3,0-205.49-92.18-205.49-205.48s92.19-205.5,205.49-205.5,205.49,92.18,205.49,205.5S1125.29,1220.81,1012,1220.81Z" transform="translate(-757.97 -737.17)"/><path class="cls-50" d="M1011.4,1220.25c-113.3,0-205.48-92.19-205.48-205.49s92.18-205.5,205.48-205.5,205.49,92.18,205.49,205.5S1124.72,1220.25,1011.4,1220.25Z" transform="translate(-757.97 -737.17)"/><path class="cls-51" d="M1010.83,1219.68c-113.3,0-205.48-92.19-205.48-205.49s92.18-205.5,205.48-205.5,205.49,92.18,205.49,205.5S1124.15,1219.68,1010.83,1219.68Z" transform="translate(-757.97 -737.17)"/><path class="cls-52" d="M1010.26,1219.11c-113.3,0-205.48-92.19-205.48-205.48s92.18-205.5,205.48-205.5,205.49,92.17,205.49,205.5S1123.58,1219.11,1010.26,1219.11Z" transform="translate(-757.97 -737.17)"/><path class="cls-53" d="M1009.69,1218.54c-113.3,0-205.48-92.19-205.48-205.48s92.18-205.5,205.48-205.5,205.5,92.18,205.5,205.5S1123,1218.54,1009.69,1218.54Z" transform="translate(-757.97 -737.17)"/><path class="cls-54" d="M1009.13,1218c-113.3,0-205.49-92.18-205.49-205.48S895.83,807,1009.13,807s205.49,92.18,205.49,205.5S1122.44,1218,1009.13,1218Z" transform="translate(-757.97 -737.17)"/><path class="cls-55" d="M1008.56,1217.4c-113.3,0-205.48-92.18-205.48-205.48s92.18-205.5,205.48-205.5,205.49,92.18,205.49,205.5S1121.88,1217.4,1008.56,1217.4Z" transform="translate(-757.97 -737.17)"/><path class="cls-56" d="M1008,1216.83c-113.3,0-205.48-92.18-205.48-205.48s92.18-205.5,205.48-205.5,205.49,92.18,205.49,205.5S1121.31,1216.83,1008,1216.83Z" transform="translate(-757.97 -737.17)"/><path class="cls-57" d="M1007.42,1216.26c-113.3,0-205.48-92.18-205.48-205.48s92.18-205.5,205.48-205.5,205.49,92.18,205.49,205.5S1120.74,1216.26,1007.42,1216.26Z" transform="translate(-757.97 -737.17)"/><path class="cls-58" d="M1006.85,1215.7c-113.3,0-205.48-92.19-205.48-205.49s92.18-205.5,205.48-205.5,205.49,92.18,205.49,205.5S1120.17,1215.7,1006.85,1215.7Z" transform="translate(-757.97 -737.17)"/><path class="cls-59" d="M1006.28,1215.13c-113.3,0-205.48-92.19-205.48-205.48s92.18-205.5,205.48-205.5,205.5,92.18,205.5,205.5S1119.6,1215.13,1006.28,1215.13Z" transform="translate(-757.97 -737.17)"/><path class="cls-60" d="M1005.72,1214.56c-113.31,0-205.49-92.18-205.49-205.48s92.18-205.5,205.49-205.5,205.49,92.18,205.49,205.5S1119,1214.56,1005.72,1214.56Z" transform="translate(-757.97 -737.17)"/><path class="cls-61" d="M1005.15,1214c-113.3,0-205.48-92.18-205.48-205.48S891.85,803,1005.15,803s205.49,92.18,205.49,205.5S1118.47,1214,1005.15,1214Z" transform="translate(-757.97 -737.17)"/><path class="cls-62" d="M1004.58,1213.42c-113.3,0-205.48-92.18-205.48-205.48s92.18-205.5,205.48-205.5,205.49,92.18,205.49,205.5S1117.9,1213.42,1004.58,1213.42Z" transform="translate(-757.97 -737.17)"/><path class="cls-63" d="M1004,1212.85c-113.3,0-205.48-92.18-205.48-205.48s92.18-205.5,205.48-205.5,205.49,92.18,205.49,205.5S1117.33,1212.85,1004,1212.85Z" transform="translate(-757.97 -737.17)"/><path class="cls-64" d="M1003.44,1212.28c-113.3,0-205.48-92.18-205.48-205.48s92.18-205.5,205.48-205.5,205.49,92.18,205.49,205.5S1116.76,1212.28,1003.44,1212.28Z" transform="translate(-757.97 -737.17)"/><path class="cls-65" d="M1002.87,1211.72c-113.3,0-205.48-92.18-205.48-205.48s92.18-205.5,205.48-205.5,205.5,92.17,205.5,205.5S1116.19,1211.72,1002.87,1211.72Z" transform="translate(-757.97 -737.17)"/><path class="cls-66" d="M1002.31,1211.15c-113.31,0-205.48-92.18-205.48-205.48s92.17-205.5,205.48-205.5,205.49,92.18,205.49,205.5S1115.62,1211.15,1002.31,1211.15Z" transform="translate(-757.97 -737.17)"/><path class="cls-67" d="M1001.74,1210.58c-113.3,0-205.48-92.18-205.48-205.48s92.18-205.5,205.48-205.5,205.49,92.18,205.49,205.5S1115.06,1210.58,1001.74,1210.58Z" transform="translate(-757.97 -737.17)"/><path class="cls-68" d="M1001.17,1210c-113.3,0-205.48-92.18-205.48-205.48S887.87,799,1001.17,799s205.49,92.18,205.49,205.5S1114.49,1210,1001.17,1210Z" transform="translate(-757.97 -737.17)"/><path class="cls-69" d="M1000.6,1209.44c-113.3,0-205.48-92.18-205.48-205.48s92.18-205.5,205.48-205.5,205.49,92.18,205.49,205.5S1113.92,1209.44,1000.6,1209.44Z" transform="translate(-757.97 -737.17)"/><path class="cls-70" d="M1000,1208.87c-113.3,0-205.48-92.17-205.48-205.48s92.18-205.5,205.48-205.5,205.49,92.18,205.49,205.5S1113.35,1208.87,1000,1208.87Z" transform="translate(-757.97 -737.17)"/><path class="cls-71" d="M999.46,1208.3c-113.3,0-205.48-92.17-205.48-205.48s92.18-205.5,205.48-205.5S1205,889.5,1205,1002.82,1112.78,1208.3,999.46,1208.3Z" transform="translate(-757.97 -737.17)"/><path class="cls-72" d="M998.9,1207.74c-113.31,0-205.48-92.18-205.48-205.48s92.17-205.5,205.48-205.5,205.49,92.18,205.49,205.5S1112.22,1207.74,998.9,1207.74Z" transform="translate(-757.97 -737.17)"/><path class="cls-73" d="M998.33,1207.17c-113.3,0-205.48-92.18-205.48-205.48S885,796.19,998.33,796.19s205.49,92.18,205.49,205.5S1111.65,1207.17,998.33,1207.17Z" transform="translate(-757.97 -737.17)"/><path class="cls-74" d="M997.76,1206.6c-113.3,0-205.48-92.18-205.48-205.48s92.18-205.5,205.48-205.5,205.49,92.18,205.49,205.5S1111.08,1206.6,997.76,1206.6Z" transform="translate(-757.97 -737.17)"/><path d="M997.19,1206c-113.3,0-205.48-92.17-205.48-205.48s92.18-205.5,205.48-205.5,205.49,92.18,205.49,205.5S1110.51,1206,997.19,1206Z" transform="translate(-757.97 -737.17)"/></g><path class="cls-75" d="M997.19,1208.55c-114.7,0-208-93.3-208-208s93.31-208,208-208,208,93.32,208,208S1111.89,1208.55,997.19,1208.55Zm0-411c-111.91,0-203,91-203,203s91,202.94,203,202.94,203-91,203-202.94S1109.1,797.59,997.19,797.59Z" transform="translate(-757.97 -737.17)"/><path class="cls-76" d="M1200.64,1000.69c0,112.58-91.25,203.84-203.83,203.84S793,1113.27,793,1000.69s91.26-203.84,203.84-203.84S1200.64,888.11,1200.64,1000.69Z" transform="translate(-757.97 -737.17)"/><path class="cls-77" d="M1107.92,1000A110.38,110.38,0,1,1,997.54,889.57,110.38,110.38,0,0,1,1107.92,1000Z" transform="translate(-757.97 -737.17)"/><path class="cls-78" d="M922.76,812.71c-43,14.52-82.84,11.42-89-6.89s23.62-45,66.59-59.48,82.84-11.45,89,6.88S965.72,798.17,922.76,812.71Z" transform="translate(-757.97 -737.17)"/><path class="cls-79" d="M1124.15,1246.84c-49.58,20.86-97,20.63-105.88-.49s24.07-55.2,73.65-76.07,97-20.65,105.86.49S1173.73,1226,1124.15,1246.84Z" transform="translate(-757.97 -737.17)"/><g id="_5" data-name="5"><rect class="cls-80" x="238.25" y="85.55" width="1.98" height="21.58"/><rect class="cls-81" x="237.39" y="84.69" width="3.7" height="23.3"/><rect class="cls-82" x="238.84" y="86.13" width="0.81" height="20.41"/><rect class="cls-83" x="967.55" y="825.16" width="1.98" height="21.58" transform="translate(-888.82 -555.6) rotate(-10.04)"/><rect class="cls-84" x="968.13" y="825.74" width="0.81" height="20.41" transform="translate(-888.43 -556.25) rotate(-10)"/><rect class="cls-85" x="939.74" y="832.54" width="1.98" height="21.58" transform="translate(-989.8 -364.24) rotate(-20.02)"/><rect class="cls-86" x="940.32" y="833.12" width="0.81" height="20.41" transform="translate(-989.68 -364.53) rotate(-20)"/><rect class="cls-87" x="913.63" y="844.63" width="1.98" height="21.58" transform="translate(-1063.13 -165.3) rotate(-30)"/><rect class="cls-88" x="914.21" y="845.21" width="0.81" height="20.41" transform="translate(-1063.14 -165.28) rotate(-30)"/><rect class="cls-89" x="890.02" y="861.08" width="1.98" height="21.58" transform="translate(-1109.98 40.02) rotate(-40.02)"/><rect class="cls-90" x="890.6" y="861.66" width="0.81" height="20.41" transform="translate(-1109.93 39.49) rotate(-40)"/><rect class="cls-91" x="869.62" y="881.38" width="1.98" height="21.58" transform="translate(-1130.52 247.04) rotate(-49.94)"/><polygon class="cls-92" points="104.56 148.74 120.2 161.87 120.72 161.24 105.09 148.12 104.56 148.74"/><rect class="cls-93" x="853.06" y="904.91" width="1.98" height="21.58" transform="translate(-1123.94 460.4) rotate(-60)"/><rect class="cls-94" x="853.64" y="905.49" width="0.81" height="20.41" transform="translate(-1123.95 460.35) rotate(-60)"/><rect class="cls-95" x="840.83" y="930.95" width="1.98" height="21.58" transform="translate(-1089.41 672.53) rotate(-69.95)"/><polygon class="cls-96" points="93.58 207.68 74.4 200.7 74.13 201.46 93.31 208.44 93.58 207.68"/><rect class="cls-97" x="833.32" y="958.73" width="1.98" height="21.58" transform="translate(-1024.06 884.39) rotate(-79.94)"/><rect class="cls-98" x="833.9" y="959.31" width="0.81" height="20.41" transform="translate(-1023.32 885.64) rotate(-80)"/><rect class="cls-99" x="62.97" y="260.02" width="21.58" height="1.98"/><rect class="cls-100" x="62.11" y="259.16" width="23.3" height="3.7"/><rect class="cls-101" x="63.55" y="260.6" width="20.41" height="0.81"/><rect class="cls-102" x="823.38" y="1025.86" width="21.58" height="1.98" transform="translate(-923.6 -576.73) rotate(-10)"/><polygon class="cls-103" points="86.18 287.51 66.08 291.05 66.22 291.85 86.32 288.31 86.18 287.51"/><rect class="cls-104" x="830.76" y="1053.67" width="21.58" height="1.97" transform="translate(-1067.98 -385.66) rotate(-20)"/><rect class="cls-105" x="831.34" y="1054.25" width="20.41" height="0.81" transform="translate(-1067.91 -385.78) rotate(-20)"/><rect class="cls-106" x="842.85" y="1079.78" width="21.58" height="1.98" transform="matrix(0.87, -0.5, 0.5, 0.87, -1184.01, -165.49)"/><rect class="cls-107" x="843.44" y="1080.36" width="20.41" height="0.81" transform="translate(-1184.04 -165.42) rotate(-30.01)"/><rect class="cls-108" x="859.3" y="1103.39" width="21.58" height="1.98" transform="translate(-1264.31 80.62) rotate(-40.01)"/><polygon class="cls-109" points="104.04 373.46 104.56 374.08 120.2 360.96 119.68 360.34 104.04 373.46"/><rect class="cls-110" x="879.6" y="1123.79" width="21.58" height="1.98" transform="matrix(0.64, -0.77, 0.77, 0.64, -1301.54, 346.69)"/><rect class="cls-111" x="880.18" y="1124.37" width="20.41" height="0.81" transform="translate(-1301.54 346.81) rotate(-50)"/><rect class="cls-112" x="903.12" y="1140.35" width="21.58" height="1.98" transform="matrix(0.5, -0.87, 0.87, 0.5, -1289.47, 624.78)"/><polygon class="cls-113" points="150.49 412.81 151.19 413.21 161.4 395.53 160.7 395.13 150.49 412.81"/><rect class="cls-114" x="929.17" y="1152.57" width="21.58" height="1.98" transform="translate(-1223.52 905.04) rotate(-70)"/><rect class="cls-115" x="929.76" y="1153.16" width="20.41" height="0.81" transform="translate(-1224.34 902.66) rotate(-69.9)"/><rect class="cls-116" x="956.95" y="1160.09" width="21.58" height="1.98" transform="translate(-1101.77 1175.23) rotate(-80)"/><rect class="cls-117" x="957.53" y="1160.68" width="20.41" height="0.81" transform="translate(-1101.25 1176.14) rotate(-80.04)"/><rect class="cls-118" x="237.44" y="415.7" width="1.97" height="21.57"/><rect class="cls-119" x="236.58" y="414.84" width="3.7" height="23.3"/><rect class="cls-120" x="238.02" y="416.28" width="0.81" height="20.41"/><rect class="cls-121" x="1024.08" y="1150.43" width="1.98" height="21.58" transform="translate(-943 -542.83) rotate(-9.94)"/><rect class="cls-122" x="1024.66" y="1151.01" width="0.81" height="20.41" transform="translate(-943.95 -541.64) rotate(-9.99)"/><polygon class="cls-123" points="290.29 406.87 292.15 406.19 299.53 426.47 297.68 427.15 290.29 406.87"/><rect class="cls-124" x="1052.48" y="1143.63" width="0.81" height="20.42" transform="translate(-1089.07 -307.55) rotate(-20)"/><rect class="cls-125" x="1078" y="1130.96" width="1.97" height="21.58" transform="translate(-1184.6 -43.65) rotate(-30.04)"/><polygon class="cls-126" points="315.56 395.94 325.77 413.62 326.48 413.21 316.27 395.53 315.56 395.94"/><rect class="cls-127" x="1101.61" y="1114.51" width="1.98" height="21.58" transform="translate(-1223.3 234.43) rotate(-39.99)"/><rect class="cls-128" x="1102.2" y="1115.09" width="0.81" height="20.41" transform="translate(-1223.38 235.25) rotate(-40.02)"/><rect class="cls-129" x="1122.01" y="1094.21" width="1.98" height="21.58" transform="translate(-1202.93 521.65) rotate(-50.14)"/><rect class="cls-130" x="1122.59" y="1094.8" width="0.81" height="20.41" transform="translate(-1203.31 517.75) rotate(-50)"/><rect class="cls-131" x="1138.57" y="1070.68" width="1.98" height="21.58" transform="translate(-1124.62 790.98) rotate(-60.02)"/><rect class="cls-132" x="1139.15" y="1071.27" width="0.81" height="20.41" transform="translate(-1124.75 790.52) rotate(-60)"/><rect class="cls-133" x="1150.8" y="1044.63" width="1.98" height="21.58" transform="translate(-991.89 1039.61) rotate(-70)"/><rect class="cls-134" x="1151.38" y="1045.22" width="0.81" height="20.41" transform="translate(-991.87 1039.65) rotate(-70)"/><rect class="cls-135" x="1158.31" y="1016.86" width="1.98" height="21.58" transform="translate(-811.43 1254.45) rotate(-80.03)"/><polygon class="cls-136" points="391.21 289.11 411.31 292.65 411.46 291.85 391.35 288.31 391.21 289.11"/><rect class="cls-137" x="393.12" y="260.83" width="21.58" height="1.98"/><rect class="cls-138" x="392.26" y="259.97" width="23.3" height="3.7"/><rect class="cls-139" x="393.7" y="261.41" width="20.42" height="0.81"/><rect class="cls-140" x="1148.65" y="969.33" width="21.58" height="1.98" transform="translate(-908.91 -520.98) rotate(-10)"/><polygon class="cls-141" points="391.49 235.32 411.6 231.77 411.46 230.97 391.35 234.52 391.49 235.32"/><rect class="cls-142" x="1141.27" y="941.52" width="21.58" height="1.98" transform="translate(-1010.9 -286.16) rotate(-20.01)"/><rect class="cls-143" x="1141.85" y="942.1" width="20.41" height="0.81" transform="translate(-1010.81 -286.42) rotate(-20)"/><rect class="cls-144" x="1129.18" y="915.41" width="21.58" height="1.98" transform="translate(-1063.43 -44.48) rotate(-30)"/><polygon class="cls-145" points="373.36 184.68 391.04 174.47 390.63 173.77 372.95 183.98 373.36 184.68"/><rect class="cls-146" x="1112.73" y="891.8" width="21.58" height="1.98" transform="translate(-1068.99 193.89) rotate(-40)"/><rect class="cls-147" x="1113.31" y="892.38" width="20.41" height="0.81" transform="translate(-1069.08 190.06) rotate(-39.85)"/><polygon class="cls-148" points="337.56 142.85 351.43 126.32 352.95 127.59 339.08 144.12 337.56 142.85"/><rect class="cls-149" x="1093.02" y="871.98" width="20.41" height="0.81" transform="translate(-1032.35 418.7) rotate(-49.96)"/><rect class="cls-150" x="1068.9" y="854.84" width="21.58" height="1.98" transform="translate(-959.28 625.81) rotate(-60)"/><rect class="cls-151" x="1069.49" y="855.42" width="20.41" height="0.81" transform="translate(-960.33 623.15) rotate(-59.88)"/><rect class="cls-152" x="1042.85" y="842.61" width="21.58" height="1.98" transform="translate(-857.5 807.87) rotate(-69.99)"/><rect class="cls-153" x="1043.44" y="843.2" width="20.41" height="0.81" transform="translate(-856.28 809.87) rotate(-70.09)"/><rect class="cls-154" x="1015.08" y="835.1" width="21.58" height="1.98" transform="translate(-733.65 963.98) rotate(-80)"/><rect class="cls-155" x="1015.66" y="835.68" width="20.41" height="0.81" transform="translate(-734.32 963.21) rotate(-79.95)"/><path class="cls-156" d="M1006.5,822.3l-.81,0L1005,835.6l.81,0Z" transform="translate(-757.97 -737.17)"/><path class="cls-157" d="M977.4,836.58l-1.66-13.29-.81.1,1.66,13.29Z" transform="translate(-757.97 -737.17)"/><path class="cls-158" d="M949.55,842.36l-3.93-12.75-.77.24,3.91,12.74Z" transform="translate(-757.97 -737.17)"/><path class="cls-159" d="M923.16,853l-6.1-11.91-.73.38,6.1,11.9Z" transform="translate(-757.97 -737.17)"/><path class="cls-160" d="M899,868l-8.06-10.66-.66.5,8.07,10.66Z" transform="translate(-757.97 -737.17)"/><path class="cls-161" d="M877.81,887,868,877.84l-.55.6,9.81,9.11C877.44,887.35,877.63,887.16,877.81,887Z" transform="translate(-757.97 -737.17)"/><path class="cls-162" d="M860.22,909.31,849,902l-.44.69L859.78,910C859.93,909.77,860.07,909.53,860.22,909.31Z" transform="translate(-757.97 -737.17)"/><path class="cls-163" d="M846.75,934.36l-12.29-5.19-.31.76,12.27,5.18C846.52,934.85,846.64,934.61,846.75,934.36Z" transform="translate(-757.97 -737.17)"/><path class="cls-164" d="M837.92,961.4l-13-3-.19.8,13,3C837.79,961.93,837.85,961.67,837.92,961.4Z" transform="translate(-757.97 -737.17)"/><path class="cls-165" d="M833.87,989.56l-13.36-.68,0,.82,13.35.67C833.83,990.1,833.85,989.83,833.87,989.56Z" transform="translate(-757.97 -737.17)"/><path class="cls-166" d="M834.8,1018l-13.29,1.66.1.82,13.29-1.66C834.87,1018.53,834.83,1018.26,834.8,1018Z" transform="translate(-757.97 -737.17)"/><path class="cls-167" d="M840.58,1045.83l-12.75,3.93.24.78,12.74-3.92C840.73,1046.36,840.66,1046.1,840.58,1045.83Z" transform="translate(-757.97 -737.17)"/><path class="cls-168" d="M851.19,1072.23l-11.91,6.1.38.72,11.9-6.09Z" transform="translate(-757.97 -737.17)"/><path class="cls-169" d="M855.52,1104.47l.5.65,10.66-8.07c-.16-.22-.34-.42-.51-.64Z" transform="translate(-757.97 -737.17)"/><path class="cls-170" d="M876.06,1127.39l.59.56,9.12-9.81-.59-.57Z" transform="translate(-757.97 -737.17)"/><path class="cls-171" d="M900.26,1146.4l.69.45,7.26-11.24-.69-.45Z" transform="translate(-757.97 -737.17)"/><path class="cls-172" d="M927.4,1160.92l.75.32,5.18-12.27c-.26-.1-.5-.23-.75-.34Z" transform="translate(-757.97 -737.17)"/><path class="cls-173" d="M956.64,1170.51l.8.18,3-13-.8-.18Z" transform="translate(-757.97 -737.17)"/><path class="cls-174" d="M987.1,1174.87l.82,0,.67-13.34-.81,0Z" transform="translate(-757.97 -737.17)"/><path class="cls-175" d="M1016.2,1160.59l1.66,13.29.82-.1-1.66-13.29Z" transform="translate(-757.97 -737.17)"/><path class="cls-176" d="M1044.05,1154.8l3.93,12.76.78-.24-3.92-12.74Z" transform="translate(-757.97 -737.17)"/><path class="cls-177" d="M1070.45,1144.2l6.1,11.9.72-.37-6.09-11.9Z" transform="translate(-757.97 -737.17)"/><path class="cls-178" d="M1094.63,1129.21l8.06,10.65.65-.49-8.07-10.66C1095.05,1128.87,1094.85,1129,1094.63,1129.21Z" transform="translate(-757.97 -737.17)"/><path class="cls-179" d="M1115.79,1110.21l9.82,9.12.56-.6-9.81-9.11Z" transform="translate(-757.97 -737.17)"/><path class="cls-180" d="M1133.39,1087.86l11.23,7.27.45-.69-11.24-7.27C1133.68,1087.4,1133.53,1087.63,1133.39,1087.86Z" transform="translate(-757.97 -737.17)"/><path class="cls-181" d="M1146.86,1062.8l12.28,5.19.32-.75-12.27-5.18C1147.09,1062.31,1147,1062.56,1146.86,1062.8Z" transform="translate(-757.97 -737.17)"/><path class="cls-182" d="M1155.69,1035.76l13,3,.18-.8-13-3C1155.82,1035.23,1155.75,1035.5,1155.69,1035.76Z" transform="translate(-757.97 -737.17)"/><path class="cls-183" d="M1159.79,1006.79c0,.28,0,.55,0,.82l13.35.67,0-.81Z" transform="translate(-757.97 -737.17)"/><path class="cls-184" d="M1158.81,979.18l13.29-1.66-.1-.81-13.3,1.66C1158.74,978.64,1158.78,978.91,1158.81,979.18Z" transform="translate(-757.97 -737.17)"/><path class="cls-185" d="M1153,951.33l12.76-3.92-.25-.79-12.73,3.92C1152.88,950.81,1152.94,951.07,1153,951.33Z" transform="translate(-757.97 -737.17)"/><path class="cls-186" d="M1142.42,924.94l11.91-6.1-.38-.73-11.91,6.1C1142.17,924.45,1142.3,924.69,1142.42,924.94Z" transform="translate(-757.97 -737.17)"/><path class="cls-187" d="M1138.08,892.7l-.49-.65-10.67,8.07c.17.21.35.42.51.64Z" transform="translate(-757.97 -737.17)"/><path class="cls-188" d="M1117.55,869.77l-.6-.55-9.11,9.81.59.56Z" transform="translate(-757.97 -737.17)"/><path class="cls-189" d="M1093.34,850.76l-.68-.44-7.27,11.24.69.44Z" transform="translate(-757.97 -737.17)"/><path class="cls-190" d="M1066.21,836.24l-.75-.31-5.18,12.27c.25.1.5.22.75.33Z" transform="translate(-757.97 -737.17)"/><path class="cls-191" d="M1037,826.66l-.8-.18-3,13,.79.19Z" transform="translate(-757.97 -737.17)"/><path class="cls-192" d="M1018.32,823.34l-.81-.09-1.57,13.29.81.11Z" transform="translate(-757.97 -737.17)"/><path class="cls-193" d="M988.32,835.61l-.76-13.34-.82.05.77,13.35Z" transform="translate(-757.97 -737.17)"/><path class="cls-194" d="M960.15,839.57l-3.06-13-.8.18,3.07,13Z" transform="translate(-757.97 -737.17)"/><path class="cls-195" d="M933.08,848.31l-5.26-12.24-.75.32,5.26,12.25Z" transform="translate(-757.97 -737.17)"/><path class="cls-196" d="M908,861.71l-7.35-11.2L900,851l7.34,11.19Z" transform="translate(-757.97 -737.17)"/><path class="cls-197" d="M885.57,879.22l-9.18-9.76-.59.56,9.18,9.76Z" transform="translate(-757.97 -737.17)"/><path class="cls-198" d="M866.51,900.33l-10.71-8-.49.66,10.7,8C866.17,900.75,866.35,900.55,866.51,900.33Z" transform="translate(-757.97 -737.17)"/><path class="cls-199" d="M851.44,924.45l-12-6-.37.73,11.94,6Z" transform="translate(-757.97 -737.17)"/><path class="cls-200" d="M840.73,950.81,828,947l-.23.78,12.78,3.84C840.59,951.33,840.66,951.07,840.73,950.81Z" transform="translate(-757.97 -737.17)"/><path class="cls-201" d="M834.87,978.64l-13.3-1.57-.1.81,13.29,1.57C834.79,979.18,834.83,978.91,834.87,978.64Z" transform="translate(-757.97 -737.17)"/><path class="cls-202" d="M833.83,1007.06l-13.34.76,0,.82,13.35-.76C833.88,1007.61,833.84,1007.34,833.83,1007.06Z" transform="translate(-757.97 -737.17)"/><path class="cls-203" d="M837.79,1035.23l-13,3.07.18.8,13-3.07C837.92,1035.76,837.85,1035.5,837.79,1035.23Z" transform="translate(-757.97 -737.17)"/><path class="cls-204" d="M846.52,1062.31l-12.23,5.26.32.75,12.25-5.27C846.75,1062.8,846.63,1062.56,846.52,1062.31Z" transform="translate(-757.97 -737.17)"/><path class="cls-205" d="M859.93,1087.4l-11.2,7.34.45.69,11.19-7.34C860.22,1087.86,860.07,1087.63,859.93,1087.4Z" transform="translate(-757.97 -737.17)"/><path class="cls-206" d="M877.44,1109.81l-9.76,9.18.56.6,9.76-9.19C877.81,1110.21,877.62,1110,877.44,1109.81Z" transform="translate(-757.97 -737.17)"/><path class="cls-207" d="M890.55,1139.59l.66.49,8-10.7-.64-.51Z" transform="translate(-757.97 -737.17)"/><path class="cls-208" d="M916.65,1155.89l.73.37,6-11.94-.72-.37Z" transform="translate(-757.97 -737.17)"/><path class="cls-209" d="M945.19,1167.42l.78.24,3.84-12.78-.78-.23Z" transform="translate(-757.97 -737.17)"/><path class="cls-210" d="M975.29,1173.82l.81.1,1.57-13.29-.81-.11Z" transform="translate(-757.97 -737.17)"/><path class="cls-211" d="M1005.29,1161.56l.75,13.33.82,0-.76-13.35Z" transform="translate(-757.97 -737.17)"/><path class="cls-212" d="M1033.45,1157.59l3.07,13,.8-.19-3.07-13C1034,1157.47,1033.72,1157.54,1033.45,1157.59Z" transform="translate(-757.97 -737.17)"/><path class="cls-213" d="M1060.53,1148.86l5.26,12.24.75-.32-5.26-12.25C1061,1148.63,1060.78,1148.75,1060.53,1148.86Z" transform="translate(-757.97 -737.17)"/><path class="cls-214" d="M1085.62,1135.46l7.34,11.19.69-.44-7.34-11.19Z" transform="translate(-757.97 -737.17)"/><path class="cls-215" d="M1108,1118l9.18,9.76.6-.57-9.19-9.76Z" transform="translate(-757.97 -737.17)"/><path class="cls-216" d="M1127.09,1096.84l10.72,8,.49-.66-10.7-8Z" transform="translate(-757.97 -737.17)"/><path class="cls-217" d="M1142.17,1072.72l11.95,6,.36-.72-11.94-6Z" transform="translate(-757.97 -737.17)"/><path class="cls-218" d="M1152.87,1046.36l12.77,3.84.24-.78-12.78-3.85C1153,1045.83,1153,1046.1,1152.87,1046.36Z" transform="translate(-757.97 -737.17)"/><path class="cls-219" d="M1158.74,1018.53l13.3,1.57.09-.81-13.29-1.57C1158.81,1018,1158.77,1018.26,1158.74,1018.53Z" transform="translate(-757.97 -737.17)"/><path class="cls-220" d="M1159.78,990.1l13.33-.76,0-.81-13.35.76C1159.73,989.56,1159.76,989.83,1159.78,990.1Z" transform="translate(-757.97 -737.17)"/><path class="cls-221" d="M1155.81,961.93l13-3.06-.19-.8-13,3.07Z" transform="translate(-757.97 -737.17)"/><path class="cls-222" d="M1147.08,934.86l12.24-5.26-.32-.75-12.25,5.26C1146.85,934.36,1147,934.61,1147.08,934.86Z" transform="translate(-757.97 -737.17)"/><path class="cls-223" d="M1133.68,909.77l11.19-7.35-.45-.68-11.18,7.34Z" transform="translate(-757.97 -737.17)"/><path class="cls-224" d="M1116.17,887.36l9.76-9.19-.57-.59-9.75,9.18Z" transform="translate(-757.97 -737.17)"/><path class="cls-225" d="M1103.05,857.58l-.65-.49-8,10.7c.21.16.42.34.64.5Z" transform="translate(-757.97 -737.17)"/><path class="cls-226" d="M1077,841.27l-.73-.37-6,11.94.73.38Z" transform="translate(-757.97 -737.17)"/><path class="cls-227" d="M1048.42,829.74l-.78-.23-3.84,12.78.78.22Z" transform="translate(-757.97 -737.17)"/><path class="cls-228" d="M1081.86,997.39l-58.64-8.66,40.35-17.07a1.21,1.21,0,0,0-.94-2.22l-39.69,16.78,34.86-46.94a1.21,1.21,0,0,0-1.69-1.69l-47.6,35.35,16.47-40.6a1.22,1.22,0,0,0-.67-1.58,1.2,1.2,0,0,0-1.57.67l-16.2,39.93L998,913.52a1.21,1.21,0,0,0-2.39,0L987,972.17l-17.07-40.35a1.2,1.2,0,0,0-1.58-.64,1.21,1.21,0,0,0-.65,1.58l16.79,39.69L937.5,937.59a1.21,1.21,0,0,0-1.69,1.69l35.35,47.6-40.6-16.47a1.21,1.21,0,1,0-.91,2.24l39.93,16.2-57.84,8.54a1.21,1.21,0,0,0,0,2.39l58.65,8.66L930,1025.51a1.2,1.2,0,0,0-.65,1.58,1.22,1.22,0,0,0,1.07.74,1.34,1.34,0,0,0,.52-.1L970.67,1011l-34.86,46.94a1.21,1.21,0,0,0,1.69,1.69l47.6-35.35-16.47,40.6a1.2,1.2,0,0,0,.66,1.57,1,1,0,0,0,.41.09,1.21,1.21,0,0,0,1.17-.75l16.2-39.93,8.54,57.83a1.21,1.21,0,0,0,2.39,0l8.66-58.64,17.06,40.35a1.22,1.22,0,0,0,1.08.74,1.36,1.36,0,0,0,.51-.1,1.21,1.21,0,0,0,.64-1.58l-16.78-39.69,46.94,34.86a1.21,1.21,0,0,0,1.69-1.69l-35.35-47.6,40.6,16.47a1.43,1.43,0,0,0,.41.09,1.21,1.21,0,0,0,.5-2.33l-39.93-16.2,57.83-8.54a1.21,1.21,0,0,0,0-2.39Zm-75.09-20.15,44.2-32.83-32.42,43.67L999,996.34l7.74-19.09Zm-18-.79,8-54.48,7.94,53.81-8,19.65-8-19Zm-13.29,12.17-32.84-44.21,43.67,32.43,8.25,19.53-19.08-7.74Zm-.8,18-54.48-8L974,990.64l19.64,8-19,8Zm12.17,13.29-44.21,32.84,32.43-43.67,19.53-8.25-7.75,19.08Zm18,.8-8,54.47-7.95-53.8,8-19.65,8,19Zm13.29-12.17,32.83,44.21-43.66-32.43-8.26-19.53,19.09,7.74Zm1.47-2-19.65-8,19-8h0l54.48,8Z" transform="translate(-757.97 -737.17)"/><path class="cls-229" d="M996.81,1175.19c-97.39,0-176.61-79.23-176.61-176.61S899.42,822,996.81,822s176.6,79.22,176.6,176.6S1094.18,1175.19,996.81,1175.19Zm0-352.44c-97,0-175.84,78.88-175.84,175.83s78.88,175.83,175.84,175.83,175.82-78.87,175.82-175.83S1093.76,822.75,996.81,822.75Z" transform="translate(-757.97 -737.17)"/><path class="cls-230" d="M986,849.78h7l7.89,15,3,6.69h.19c-.28-3.21-.84-7.48-.84-11V849.78h6.5v30.27h-7L994.84,865l-3-6.59h-.18c.28,3.34.84,7.38.84,11v10.72H986Z" transform="translate(-757.97 -737.17)"/><path class="cls-230" d="M1090.77,890.68l2.76,2.92-4.28,13.55-1.86,4.86.1.1c1.52-1.67,3.33-3.85,5.11-5.54l7-6.59,2.58,2.72-16,15.18-2.76-2.92,4.29-13.54,1.85-4.87-.1-.1c-1.57,1.73-3.27,3.81-5.06,5.5l-7,6.64-2.58-2.72Z" transform="translate(-757.97 -737.17)"/><path class="cls-230" d="M1106,906.76l9.14,9.66-2.4,2.28-6.45-6.82-4.1,3.88,5.46,5.76-2.4,2.27-5.46-5.75-4.73,4.48,6.69,7.06-2.4,2.27L1090,922Z" transform="translate(-757.97 -737.17)"/><path class="cls-230" d="M1146.1,989.41v20.49h-5.88V996.8H1134v11.14h-5.83V996.8h-7.11v13.6h-5.88v-21Z" transform="translate(-757.97 -737.17)"/><path class="cls-230" d="M1099.45,1075.39a9,9,0,0,0-6,2.25c-1.83,1.78-2,3.56-.8,4.82s2.74.74,4.8,0l3.16-1.2c2.24-.86,5.15-1.24,7.45,1.14,2.49,2.58,2.14,6.76-1,9.84a10,10,0,0,1-7,2.77l-.31-3.25a7.37,7.37,0,0,0,4.86-2c1.53-1.49,1.85-3.19.7-4.38s-2.92-.54-4.78.22l-3.1,1.22c-2.7,1-5.23,1.14-7.51-1.21-2.55-2.63-2.48-6.92,1.16-10.45a11.7,11.7,0,0,1,8.14-3.29Z" transform="translate(-757.97 -737.17)"/><path class="cls-230" d="M1098.31,1100.07l-9.75,9.47-2.35-2.43,6.88-6.68-4-4.13-5.82,5.64-2.35-2.43,5.82-5.64-4.63-4.77L1075,1096l-2.36-2.42,10-9.7Z" transform="translate(-757.97 -737.17)"/><path class="cls-230" d="M1005.57,1126.12a12.26,12.26,0,0,0-7.47-3.16c-2.83,0-4.23,1.12-4.23,2.92s1.72,2.51,4.37,3.63l3.94,1.67c3.11,1.25,6.09,3.85,6.09,8.26,0,5-4.46,9-10.78,9a14,14,0,0,1-9.75-4l3.49-4.32a9.74,9.74,0,0,0,6.26,2.41c2.37,0,3.86-1,3.86-2.73s-2-2.51-4.6-3.58l-3.9-1.58c-3.67-1.48-6-4-6-8.22,0-5,4.18-9.38,11.42-9.38a16.56,16.56,0,0,1,11.19,4.37Z" transform="translate(-757.97 -737.17)"/><path class="cls-230" d="M920.66,1101.46a8.76,8.76,0,0,0-2-5.94c-1.67-1.86-3.4-2.13-4.69-1s-.84,2.66-.14,4.7l1,3.15c.77,2.21,1,5.07-1.4,7.24-2.61,2.34-6.69,1.83-9.58-1.39a9.72,9.72,0,0,1-2.44-6.92l3.19-.19a7.14,7.14,0,0,0,1.79,4.83c1.4,1.56,3,1.94,4.25.86s.64-2.83,0-4.69l-1.08-3.07c-.91-2.68-.91-5.17,1.48-7.3,2.66-2.39,6.86-2.16,10.17,1.53a11.43,11.43,0,0,1,2.9,8.1Z" transform="translate(-757.97 -737.17)"/><path class="cls-230" d="M898,1101l-2.68-3,7-8.87c1.52-1.85,3-3.71,4.54-5.51l-.09-.1c-2,1.2-4.15,2.45-6.23,3.63l-10.1,5.42-2.27-2.54,6.5-9.44c1.36-1.92,2.83-3.87,4.26-5.82l-.09-.1-6,3.93-9.58,6-2.5-2.79,19.26-11.59,3.25,3.62-6.83,9.78c-1,1.43-2.07,2.81-3.14,4.14l.09.1c1.46-.9,2.94-1.78,4.47-2.65l10.43-5.77,3.18,3.55Z" transform="translate(-757.97 -737.17)"/><path class="cls-230" d="M850.68,1014.44v-6.24l12.61-1.86c2.81-.33,5.66-.75,8.52-1.08v-.16l-8.52-1.61-12.61-2.9v-5.17l12.61-2.89c2.73-.54,5.62-1.07,8.52-1.61v-.17l-8.52-1.11-12.61-1.86V982l27,4.79v7.65L865.4,997c-2.07.45-4.26.78-6.24,1.07v.17c2,.33,4.17.66,6.24,1.11l12.24,2.52v7.53Z" transform="translate(-757.97 -737.17)"/><path class="cls-230" d="M875.3,920.83l2.69-3,13.84,3.22,5,1.47.09-.1c-1.78-1.39-4.09-3-5.92-4.67l-7.12-6.43,2.52-2.78,16.38,14.8-2.69,3-13.84-3.21-5-1.47-.09.1c1.84,1.44,4.05,3,5.88,4.63l7.16,6.47-2.51,2.78Z" transform="translate(-757.97 -737.17)"/><path class="cls-230" d="M888.67,906l2.7-3,9.55,6c2,1.31,4,2.62,6,3.93l.09-.1c-1.41-1.91-2.87-3.87-4.26-5.81l-6.45-9.47,2.28-2.53,10.08,5.47c2,1.16,4.14,2.41,6.23,3.62l.09-.1c-1.53-1.83-3-3.69-4.53-5.5l-7-8.9,2.51-2.78,13.55,17.93-3.25,3.61-10.45-5.76c-1.53-.88-3-1.76-4.44-2.69l-.09.1c1,1.36,2.07,2.74,3.1,4.17l6.83,9.76L908,917.57Z" transform="translate(-757.97 -737.17)"/><g class="cls-231"><path class="cls-232" d="M990.25,810.44c-.06-4.76,1.76-7.28,4.69-7.32s4.83,2.44,4.89,7.19-1.75,7.41-4.68,7.45S990.32,815.21,990.25,810.44Zm7.14-.1c0-4-1-5.24-2.42-5.22s-2.33,1.3-2.28,5.29,1.08,5.37,2.43,5.36S997.45,814.34,997.39,810.34Z" transform="translate(-757.97 -737.17)"/><path class="cls-233" d="M1089.2,837.9a4.6,4.6,0,0,0,2.09,3c1.32.78,2.65.63,3.33-.52s.41-2.53-2.36-4.17l.94-1.61c2.39,1.41,3.66,1.05,4.32-.07a1.85,1.85,0,0,0-.83-2.69,4.12,4.12,0,0,0-3.12-.29l-.33-2a6.2,6.2,0,0,1,4.55.63c2.33,1.37,3.26,3.47,2,5.53a3.38,3.38,0,0,1-3.76,1.54l0,.08a3.59,3.59,0,0,1,.75,4.5c-1.31,2.22-4,2.38-6.34,1a6.14,6.14,0,0,1-3.12-4.16Z" transform="translate(-757.97 -737.17)"/><path class="cls-234" d="M1100.3,840.18c2.68-3.95,5.61-5,8-3.33s2.57,4.76-.09,8.69-5.68,5.08-8.1,3.44S1097.63,844.13,1100.3,840.18Zm5.92,4c2.24-3.31,2.14-4.91,1-5.68s-2.66-.26-4.89,3-2.2,5-1.08,5.79S1104,847.48,1106.22,844.18Z" transform="translate(-757.97 -737.17)"/><path class="cls-235" d="M1167.51,905.6a3.12,3.12,0,0,0-.21-2.48c-.9-1.53-2.75-2.11-6.18-.24a4.18,4.18,0,0,1,3,1.8c1.23,2.11.85,4.28-1.7,5.77a4.4,4.4,0,0,1-6.24-1.5c-1.4-2.39-.72-5.51,3.38-7.9,4.73-2.76,8-1.6,9.48.89a5,5,0,0,1,.52,4.06Zm-6.31,2.8c1.44-.84,1.75-2,1-3.18a3.15,3.15,0,0,0-2.67-1.37c-2,1.49-2.45,2.89-1.76,4.08C1158.41,908.94,1159.71,909.27,1161.2,908.4Z" transform="translate(-757.97 -737.17)"/><path class="cls-236" d="M1165.69,910.75c4.26-2.15,7.32-1.61,8.64,1s-.08,5.41-4.32,7.55-7.43,1.67-8.75-.95S1161.44,912.9,1165.69,910.75Zm3.22,6.37c3.57-1.8,4.26-3.24,3.64-4.47s-2.2-1.53-5.76.28-4.36,3.32-3.75,4.52S1165.35,918.92,1168.91,917.12Z" transform="translate(-757.97 -737.17)"/><path class="cls-237" d="M1183.91,998.78a3.09,3.09,0,0,0-1.06,2.26c0,1.78,1.32,3.21,5.22,3.32a4.3,4.3,0,0,1-1.65-3.08c0-2.42,1.41-4.11,4.36-4.12a4.4,4.4,0,0,1,4.63,4.43c0,2.75-2.12,5.11-6.87,5.12-5.48,0-7.77-2.62-7.77-5.53a5,5,0,0,1,1.58-3.77Zm6,5.5c2.48-.27,3.55-1.29,3.55-2.66,0-1.16-1-2.11-2.67-2.1s-2.53.82-2.52,2.24A3.15,3.15,0,0,0,1189.91,1004.28Z" transform="translate(-757.97 -737.17)"/><path class="cls-238" d="M1188.05,1008.9c4.75.32,7.11,2.35,6.91,5.27s-2.82,4.61-7.56,4.29-7.25-2.36-7.05-5.28S1183.29,1008.58,1188.05,1008.9Zm-.49,7.12c4,.27,5.32-.62,5.41-2s-1.11-2.43-5.09-2.7-5.45.63-5.54,2S1183.58,1015.75,1187.56,1016Z" transform="translate(-757.97 -737.17)"/><path class="cls-239" d="M1160.8,1089l-1.56,2.73,8,4.6,1.29-2.25,1.39.8a9.31,9.31,0,0,0-.62,3.4l-.95,1.66-10.44-6-1.38,2.41-1.8-1,4.21-7.38Z" transform="translate(-757.97 -737.17)"/><path class="cls-240" d="M1155.07,1097.7c1,5.36,1.75,8.78,3.54,10a2.19,2.19,0,0,0,3.32-.61,3.88,3.88,0,0,0,.19-3.16l2-.41a5.76,5.76,0,0,1-.65,5,4.12,4.12,0,0,1-6.06,1.35c-2.1-1.37-3-4.73-3.91-8.68-.35.65-.78,1.47-1.16,2.05l-1.89,2.89-1.82-1.19,5.23-8Z" transform="translate(-757.97 -737.17)"/><path class="cls-241" d="M1153.35,1110.49c3.82,2.85,4.7,5.83,3,8.18s-4.87,2.34-8.68-.5-4.81-5.91-3.06-8.26S1149.53,1107.63,1153.35,1110.49Zm-4.27,5.72c3.2,2.39,4.8,2.36,5.62,1.26s.39-2.64-2.81-5-4.92-2.42-5.73-1.33S1145.88,1113.83,1149.08,1116.21Z" transform="translate(-757.97 -737.17)"/><path class="cls-242" d="M1094.87,1158.55l-2.72,1.59,4.7,8,2.23-1.31.81,1.38a9.58,9.58,0,0,0-2.23,2.64l-1.64,1-6.09-10.38-2.39,1.41-1-1.81,7.33-4.29Z" transform="translate(-757.97 -737.17)"/><path class="cls-243" d="M1085.57,1165.31a4.72,4.72,0,0,0-3.62.15,2.56,2.56,0,0,0-1.22,3.65,2.43,2.43,0,0,0,3.51,1.18,3.59,3.59,0,0,0,1.66-1.73l1.44.14,2.77,6.41-6.73,3.41-1-1.92,4.75-2.41-1.29-3.18a4.16,4.16,0,0,1-1.45,1.26,4.11,4.11,0,0,1-6-1.94,4.75,4.75,0,0,1,2.25-6.58,6.49,6.49,0,0,1,5.18-.43Z" transform="translate(-757.97 -737.17)"/><path class="cls-244" d="M1077.67,1173.51c1.89,4.37,1.17,7.39-1.52,8.56s-5.39-.4-7.28-4.76-1.22-7.52,1.47-8.68S1075.77,1169.12,1077.67,1173.51Zm-6.56,2.83c1.59,3.67,3,4.44,4.24,3.89s1.66-2.09.08-5.76-3.06-4.55-4.3-4S1069.53,1172.67,1071.11,1176.34Z" transform="translate(-757.97 -737.17)"/><path class="cls-245" d="M1012,1185.4l-3.14.17.49,9.26,2.59-.14.09,1.59a9.57,9.57,0,0,0-3.19,1.33l-1.91.1-.65-12-2.76.15-.12-2.08,8.49-.46Z" transform="translate(-757.97 -737.17)"/><path class="cls-246" d="M998.93,1191v.09a4,4,0,0,1,2,3.3c0,2.28-1.81,3.75-4.25,3.76s-4.15-1.52-4.16-3.81a4.3,4.3,0,0,1,1.88-3.24V1191a4,4,0,0,1-2.45-3.65c0-2.18,1.9-3.84,4.76-3.85s4.8,1.59,4.8,3.87A4.18,4.18,0,0,1,998.93,1191Zm-2.3-5.67a2.09,2.09,0,0,0-2.32,2.11c0,1.53,1.49,2.08,3.4,2.85a3.32,3.32,0,0,0,1.52-2.64A2.39,2.39,0,0,0,996.63,1185.36Zm-2,8.85a2,2,0,0,0,2.09,2.15,1.83,1.83,0,0,0,1.93-1.94c0-1.42-1.27-2-2.85-2.65A3.46,3.46,0,0,0,994.59,1194.21Z" transform="translate(-757.97 -737.17)"/><path class="cls-247" d="M989.88,1190.82c-.31,4.76-2.34,7.12-5.26,6.92s-4.61-2.82-4.3-7.56,2.35-7.24,5.27-7S990.2,1186.06,989.88,1190.82Zm-7.12-.47c-.27,4,.62,5.31,2,5.4s2.44-1.11,2.7-5.09-.64-5.45-2-5.53S983,1186.37,982.76,1190.35Z" transform="translate(-757.97 -737.17)"/><path class="cls-248" d="M918.79,1167.62c-5.21,1.61-8.53,2.71-9.51,4.63a2.19,2.19,0,0,0,1,3.23,3.89,3.89,0,0,0,3.16-.16l.63,1.91a5.77,5.77,0,0,1-5-.1,4.12,4.12,0,0,1-2-5.87c1.13-2.24,4.37-3.48,8.2-4.85-.69-.27-1.56-.61-2.17-.92l-3.08-1.56,1-2,8.5,4.31Z" transform="translate(-757.97 -737.17)"/><path class="cls-249" d="M907.79,1162.61l-2.72-1.6-4.69,8,2.24,1.31-.81,1.39a9.45,9.45,0,0,0-3.4-.66l-1.64-1,6.08-10.37-2.39-1.4,1.06-1.8,7.33,4.29Z" transform="translate(-757.97 -737.17)"/><path class="cls-250" d="M895.93,1161.42c-2.66,4-5.6,5-8,3.35s-2.58-4.76.07-8.7,5.67-5.09,8.1-3.46S898.59,1157.46,895.93,1161.42Zm-5.94-4c-2.22,3.32-2.12,4.92-1,5.68s2.66.26,4.89-3,2.18-5,1.06-5.79S892.22,1154.12,890,1157.43Z" transform="translate(-757.97 -737.17)"/><path class="cls-251" d="M848.56,1109.41c-5.35-1.08-8.8-1.7-10.57-.47a2.18,2.18,0,0,0-.68,3.3,3.87,3.87,0,0,0,2.86,1.37l-.36,2a5.77,5.77,0,0,1-4.36-2.48,4.12,4.12,0,0,1,1-6.12c2.07-1.43,5.51-1,9.53-.35-.47-.56-1.08-1.28-1.47-1.85l-2-2.85,1.79-1.23,5.42,7.85Z" transform="translate(-757.97 -737.17)"/><path class="cls-252" d="M835.24,1092.72l.91,1.53,3.12-1.88,1.24,2.05-3.12,1.87,3.23,5.35-1.49.89-10.37-.27-1.57-2.6,7.27-4.4-.91-1.52Zm.46,4.6L833,1099c-.71.42-1.84,1-2.57,1.41l.05.08c.8-.07,1.62-.1,2.47-.14l4.7.17Z" transform="translate(-757.97 -737.17)"/><path class="cls-253" d="M831.43,1093.06c-4.22,2.21-7.29,1.72-8.65-.88s0-5.41,4.21-7.61,7.41-1.78,8.77.82S835.66,1090.85,831.43,1093.06Zm-3.31-6.33c-3.54,1.85-4.21,3.3-3.57,4.52s2.21,1.5,5.75-.35,4.31-3.39,3.69-4.59S831.66,1084.88,828.12,1086.73Z" transform="translate(-757.97 -737.17)"/><path class="cls-254" d="M813.77,1015.83c-4-3.72-6.61-6-8.76-5.92a2.19,2.19,0,0,0-2.31,2.46,3.92,3.92,0,0,0,1.72,2.66l-1.34,1.49a5.76,5.76,0,0,1-2.41-4.37,4.12,4.12,0,0,1,4.07-4.69c2.5-.14,5.2,2,8.3,4.67-.11-.72-.25-1.65-.28-2.33l-.19-3.46,2.17-.12.52,9.52Z" transform="translate(-757.97 -737.17)"/><path class="cls-255" d="M802.75,997.78l0,6.67h-2.15l0-9.46h1.55c4.11,3.3,7.06,3.87,12.56,4.1v2.59C809.71,1001.44,806.55,1000.49,802.75,997.78Z" transform="translate(-757.97 -737.17)"/><path class="cls-256" d="M807.69,992.92c-4.76-.32-7.12-2.34-6.93-5.26s2.81-4.62,7.55-4.31,7.25,2.34,7.06,5.27S812.45,993.23,807.69,992.92Zm.46-7.13c-4-.26-5.31.63-5.4,2s1.11,2.43,5.1,2.69,5.44-.64,5.53-2S812.14,986.05,808.15,985.79Z" transform="translate(-757.97 -737.17)"/><path class="cls-257" d="M831.52,916.06a4.6,4.6,0,0,0,3-2.22c.72-1.35.52-2.66-.65-3.29s-2.55-.31-4.07,2.53l-1.65-.89c1.31-2.44.9-3.69-.25-4.31a1.84,1.84,0,0,0-2.65,1A4.11,4.11,0,0,0,825,912l-2,.41a6.16,6.16,0,0,1,.43-4.57c1.28-2.39,3.33-3.41,5.45-2.28a3.4,3.4,0,0,1,1.69,3.71l.08,0a3.58,3.58,0,0,1,4.47-.93c2.27,1.22,2.55,3.91,1.27,6.29a6.18,6.18,0,0,1-4,3.29Z" transform="translate(-757.97 -737.17)"/><path class="cls-258" d="M833.33,904.88c-4.05-2.5-5.19-5.39-3.65-7.88s4.65-2.76,8.69-.27,5.3,5.47,3.77,8S837.39,907.39,833.33,904.88Zm3.76-6.07c-3.4-2.1-5-1.93-5.71-.77s-.16,2.67,3.23,4.77,5.12,2,5.83.83S840.49,900.91,837.09,898.81Z" transform="translate(-757.97 -737.17)"/><path class="cls-259" d="M839.49,895c-3.9-2.75-4.86-5.7-3.17-8.1s4.8-2.47,8.69.27,5,5.78,3.27,8.17S843.38,897.79,839.49,895Zm4.11-5.84c-3.26-2.3-4.86-2.23-5.65-1.11s-.32,2.65,2.94,4.95,5,2.29,5.76,1.19S846.86,891.5,843.6,889.2Z" transform="translate(-757.97 -737.17)"/><path class="cls-260" d="M892.26,846.81a4.57,4.57,0,0,0,3.65-.54c1.28-.84,1.73-2.09,1-3.2s-2.09-1.5-4.79.27l-1-1.56c2.32-1.52,2.55-2.82,1.83-3.91a1.84,1.84,0,0,0-2.78-.43,4.17,4.17,0,0,0-1.64,2.67l-2-.6a6.25,6.25,0,0,1,2.57-3.81c2.26-1.49,4.55-1.4,5.87.6a3.4,3.4,0,0,1-.28,4.07l0,.07a3.6,3.6,0,0,1,4.38,1.32c1.41,2.15.37,4.65-1.9,6.14a6.14,6.14,0,0,1-5.1,1Z" transform="translate(-757.97 -737.17)"/><path class="cls-261" d="M901.79,840.68a4.61,4.61,0,0,0,3.68-.33c1.33-.76,1.85-2,1.19-3.14s-2-1.61-4.79,0l-.93-1.61c2.41-1.39,2.72-2.67,2.07-3.8a1.84,1.84,0,0,0-2.75-.6,4.19,4.19,0,0,0-1.8,2.57l-1.92-.71a6.24,6.24,0,0,1,2.79-3.65c2.35-1.35,4.63-1.12,5.82,1a3.38,3.38,0,0,1-.52,4l0,.08a3.58,3.58,0,0,1,4.29,1.58c1.28,2.23.09,4.65-2.26,6a6.1,6.1,0,0,1-5.15.65Z" transform="translate(-757.97 -737.17)"/><path class="cls-262" d="M909.25,832.15c-2.12-4.28-1.56-7.33,1.07-8.63s5.41.12,7.51,4.37,1.62,7.44-1,8.75S911.37,836.42,909.25,832.15Zm6.4-3.18c-1.78-3.57-3.21-4.27-4.44-3.66s-1.55,2.17.22,5.75,3.29,4.39,4.51,3.79S917.42,832.55,915.65,829Z" transform="translate(-757.97 -737.17)"/></g></g></g></g></svg>