<svg id="Layer_1" data-name="Layer 1" xmlns="http://www.w3.org/2000/svg" xmlns:xlink="http://www.w3.org/1999/xlink" viewBox="0 0 809.92 124.21"><defs><style>.cls-1{fill:url(#linear-gradient);}.cls-2{fill:url(#linear-gradient-2);}.cls-3{fill:url(#linear-gradient-3);}.cls-4{fill:url(#linear-gradient-4);}.cls-5{fill:url(#linear-gradient-5);}.cls-6{fill:url(#linear-gradient-6);}.cls-7{fill:url(#linear-gradient-7);}.cls-8{fill:url(#linear-gradient-8);}.cls-9{fill:url(#linear-gradient-9);}.cls-10{fill:url(#linear-gradient-10);}.cls-11{fill:url(#linear-gradient-11);}.cls-12{fill:url(#linear-gradient-12);}.cls-13{fill:url(#linear-gradient-13);}.cls-14{fill:url(#linear-gradient-14);}.cls-15{fill:url(#linear-gradient-15);}.cls-16{fill:url(#linear-gradient-16);}.cls-17{fill:url(#linear-gradient-17);}.cls-18{fill:url(#linear-gradient-18);}</style><linearGradient id="linear-gradient" x1="984.66" y1="511.61" x2="984.66" y2="388.39" gradientUnits="userSpaceOnUse"><stop offset="0" stop-color="#a6979c"/><stop offset="0.23" stop-color="#d9ccd9"/><stop offset="0.47" stop-color="#ab9da2"/><stop offset="0.48" stop-color="#e0dfe1"/><stop offset="0.54" stop-color="#fff"/><stop offset="0.59" stop-color="#e0dfe1"/><stop offset="0.68" stop-color="#bebabf"/><stop offset="0.75" stop-color="#eae4f2"/><stop offset="0.95" stop-color="#ab9da2"/><stop offset="1" stop-color="#e0dfe1"/></linearGradient><linearGradient id="linear-gradient-2" x1="984.36" y1="512.11" x2="984.36" y2="387.89" gradientUnits="userSpaceOnUse"><stop offset="0" stop-color="#a6979c"/><stop offset="0.11" stop-color="#d9ccd9"/><stop offset="0.29" stop-color="#b8acb0"/><stop offset="0.3" stop-color="#ab9da2"/><stop offset="0.51" stop-color="#fff"/><stop offset="0.66" stop-color="#e0dfe1"/><stop offset="0.76" stop-color="#bebabf"/><stop offset="0.84" stop-color="#ab9da2"/><stop offset="1" stop-color="#fff"/></linearGradient><linearGradient id="linear-gradient-3" x1="535.94" y1="510.7" x2="535.94" y2="389.3" xlink:href="#linear-gradient"/><linearGradient id="linear-gradient-4" x1="535.94" y1="511.2" x2="535.94" y2="388.8" xlink:href="#linear-gradient-2"/><linearGradient id="linear-gradient-5" x1="1089.35" y1="510.7" x2="1089.35" y2="389.3" xlink:href="#linear-gradient"/><linearGradient id="linear-gradient-6" x1="1089.36" y1="511.2" x2="1089.36" y2="388.8" xlink:href="#linear-gradient-2"/><linearGradient id="linear-gradient-7" x1="440.49" y1="510.7" x2="440.49" y2="389.3" xlink:href="#linear-gradient"/><linearGradient id="linear-gradient-8" x1="440.49" y1="511.2" x2="440.49" y2="388.8" xlink:href="#linear-gradient-2"/><linearGradient id="linear-gradient-9" x1="752.36" y1="510.7" x2="752.36" y2="389.3" xlink:href="#linear-gradient"/><linearGradient id="linear-gradient-10" x1="752.36" y1="511.2" x2="752.36" y2="388.8" xlink:href="#linear-gradient-2"/><linearGradient id="linear-gradient-11" x1="1145.36" y1="510.7" x2="1145.36" y2="389.3" xlink:href="#linear-gradient"/><linearGradient id="linear-gradient-12" x1="1145.36" y1="511.2" x2="1145.36" y2="388.8" xlink:href="#linear-gradient-2"/><linearGradient id="linear-gradient-13" x1="636.3" y1="510.7" x2="636.3" y2="389.3" xlink:href="#linear-gradient"/><linearGradient id="linear-gradient-14" x1="636.3" y1="511.2" x2="636.3" y2="388.8" xlink:href="#linear-gradient-2"/><linearGradient id="linear-gradient-15" x1="862.04" y1="510.7" x2="862.04" y2="389.3" xlink:href="#linear-gradient"/><linearGradient id="linear-gradient-16" x1="862.36" y1="511.2" x2="862.36" y2="388.8" xlink:href="#linear-gradient-2"/><linearGradient id="linear-gradient-17" x1="1190.36" y1="510.7" x2="1190.36" y2="389.3" xlink:href="#linear-gradient"/><linearGradient id="linear-gradient-18" x1="1190.36" y1="511.2" x2="1190.36" y2="388.8" xlink:href="#linear-gradient-2"/></defs><path class="cls-1" d="M1023.7,394.58a16.42,16.42,0,0,1,13.29-6.19q6,0,9.1,3.73a13.93,13.93,0,0,1,3.09,9.19v110.3h-10.92V402.77c0-1.7-.73-2.55-2.18-2.55a4.89,4.89,0,0,0-1.82.37,6.51,6.51,0,0,0-2.19,1.82l-96.64,109.2H920.14Zm8.37,93.91v23.12h-10.92V500.69h-51l-9.83,10.92H944.71l20.57-23.12Zm-60.42-6.91,60.42-68.44v68.44Zm49.5-38.95L998.4,469.38h22.75Z" transform="translate(-395.04 -387.89)"/><path class="cls-2" d="M1049.68,512.11h-11.92V402.77c0-1.81-.9-2-1.68-2a4.33,4.33,0,0,0-1.64.33,6.21,6.21,0,0,0-2,1.69l-96.8,109.37H919l104.29-117.85a16.93,16.93,0,0,1,13.67-6.37c4.13,0,7.32,1.32,9.48,3.91a14.48,14.48,0,0,1,3.21,9.52Zm-10.92-1h9.92V401.32a13.5,13.5,0,0,0-3-8.88c-2-2.35-4.89-3.55-8.71-3.55a16,16,0,0,0-12.9,6h0L921.25,511.11h14l96.5-109a6.89,6.89,0,0,1,2.37-2,5.5,5.5,0,0,1,2-.4c1,0,2.68.4,2.68,3Zm-6.19,1h-11.92V501.19H970.41l-9.82,10.92h-17L965.05,488h67.52Zm-10.92-1h9.92V489H965.5l-19.67,22.12h14.31L970,500.19h51.68Zm10.92-29h-62l62-70.26Zm-59.81-1h58.81V414.47Zm48.89-11.2H997.32l24.33-28.61Zm-22.17-1h21.17V444Z" transform="translate(-395.04 -387.89)"/><path class="cls-3" d="M508.09,510.7V389.3h55.69v12.2H519.19v97H563.6v12.2Zm17.11-65V408.41h38.58v12.2H536.3v12.92h26.57v12.19Zm0,45.87V452.64h37.67v12.19H536.3v14.56h27.3v12.2Z" transform="translate(-395.04 -387.89)"/><path class="cls-4" d="M564.1,511.2H507.59V388.8h56.69V402H519.69v96H564.1Zm-55.51-1H563.1V499H518.69V401h44.59V389.8H508.59Zm55.51-18.11H524.7V452.14h38.67v13.19H536.8v13.56h27.3Zm-38.4-1h37.4v-11.2H535.8V464.33h26.57V453.14H525.7Zm37.67-44.87H524.7V407.91h39.58v13.2H536.8V433h26.57Zm-37.67-1h36.67V434H535.8V420.11h27.48v-11.2H525.7Z" transform="translate(-395.04 -387.89)"/><path class="cls-5" d="M1061.87,389.3h55v12.2h-44V510.7h-10.92ZM1079,445.72V408.41h37.86v12.2h-26.76v12.92h25.85v12.19Zm11.1,65H1079V452.64h37v12.19h-25.85Z" transform="translate(-395.04 -387.89)"/><path class="cls-6" d="M1090.58,511.2h-12.1V452.14h38v13.19h-25.85Zm-11.1-1h10.1V464.33h25.85V453.14h-36Zm-6.19,1h-11.92V388.8h56V402h-44Zm-10.92-1h9.92V401h44V389.8h-54Zm54.06-64h-38V407.91h38.86v13.2h-26.76V433h25.85Zm-37-1h36V434h-25.85V420.11h26.76v-11.2h-36.86Z" transform="translate(-395.04 -387.89)"/><path class="cls-7" d="M485.45,435.17V510.7H450.5a54.22,54.22,0,0,1-22.11-4.46A51,51,0,0,1,411,493.77a57.84,57.84,0,0,1-11.38-19.2,71.52,71.52,0,0,1-4.09-24.66,70.76,70.76,0,0,1,4.09-24.57A58,58,0,0,1,411,406.23a51.18,51.18,0,0,1,17.38-12.47,54.22,54.22,0,0,1,22.11-4.46h34.95v12.2H450.5A44.62,44.62,0,0,0,432.76,405a40.66,40.66,0,0,0-14,9.82,45,45,0,0,0-9.2,15.29,57.3,57.3,0,0,0-3.27,19.84,58.07,58.07,0,0,0,3.27,19.93,44.87,44.87,0,0,0,9.2,15.38,40.69,40.69,0,0,0,14,9.83,44.79,44.79,0,0,0,17.74,3.45h24V447.36H443.59V435.17ZM450.5,491.59a38.72,38.72,0,0,1-15-2.91,34.92,34.92,0,0,1-12.1-8.29,38.23,38.23,0,0,1-8-13.1,49.08,49.08,0,0,1-2.91-17.38,48.53,48.53,0,0,1,2.91-17.2,38.33,38.33,0,0,1,8-13.1,34.9,34.9,0,0,1,12.1-8.28,38.73,38.73,0,0,1,15-2.92h34.95v12.2H450.5q-12,0-19.56,7.28t-7.55,22q0,14.74,7.55,22.11t19.56,7.37h6.92V464.83H443.59V452.64h24.57v38.95Z" transform="translate(-395.04 -387.89)"/><path class="cls-8" d="M486,511.2H450.5a55,55,0,0,1-22.31-4.5,51.83,51.83,0,0,1-17.55-12.59,58.4,58.4,0,0,1-11.47-19.37A72.06,72.06,0,0,1,395,449.91a71.3,71.3,0,0,1,4.13-24.74,58.58,58.58,0,0,1,11.47-19.28,51.81,51.81,0,0,1,17.55-12.58,54.87,54.87,0,0,1,22.31-4.51H486V402H450.5A44.36,44.36,0,0,0,433,405.42a40.31,40.31,0,0,0-13.85,9.7A44.85,44.85,0,0,0,410,430.24a57.07,57.07,0,0,0-3.24,19.67A57.84,57.84,0,0,0,410,469.67a44.59,44.59,0,0,0,9.09,15.21A40.48,40.48,0,0,0,433,494.59,44.5,44.5,0,0,0,450.5,498H474V447.86H443.09V434.67H486ZM450.5,389.8a54,54,0,0,0-21.91,4.42,50.79,50.79,0,0,0-17.21,12.35,57.55,57.55,0,0,0-11.28,18.94,70.56,70.56,0,0,0-4.06,24.4,71.29,71.29,0,0,0,4.06,24.49,57.58,57.58,0,0,0,11.28,19,50.76,50.76,0,0,0,17.21,12.34,53.91,53.91,0,0,0,21.91,4.42H485V435.67H444.09v11.19H475V499H450.5a45.44,45.44,0,0,1-17.94-3.49,41.44,41.44,0,0,1-14.18-9.95,45.41,45.41,0,0,1-9.3-15.55,58.81,58.81,0,0,1-3.3-20.1,58,58,0,0,1,3.3-20,45.77,45.77,0,0,1,9.3-15.46,41.41,41.41,0,0,1,14.18-9.94A45.31,45.31,0,0,1,450.5,401H485V389.8Zm18.16,102.29H450.5a39.48,39.48,0,0,1-15.2-2.95,35.69,35.69,0,0,1-12.28-8.4,39,39,0,0,1-8.11-13.27A49.86,49.86,0,0,1,412,449.91a49.32,49.32,0,0,1,2.94-17.38A39.15,39.15,0,0,1,423,419.26a35.69,35.69,0,0,1,12.28-8.4,39.51,39.51,0,0,1,15.2-2.95H486v13.2H450.5c-7.83,0-14.3,2.4-19.21,7.14s-7.4,12-7.4,21.66,2.49,17,7.4,21.75,11.38,7.23,19.21,7.23h6.42V465.33H443.09V452.14h25.57ZM450.5,408.91a38.38,38.38,0,0,0-14.82,2.88A34.61,34.61,0,0,0,423.75,420a37.87,37.87,0,0,0-7.9,12.94,48,48,0,0,0-2.88,17,48.52,48.52,0,0,0,2.88,17.2,37.78,37.78,0,0,0,7.9,12.94,34.61,34.61,0,0,0,11.93,8.16,38.3,38.3,0,0,0,14.82,2.88h17.16V453.14H444.09v11.19h13.83v15.56H450.5c-8.1,0-14.8-2.53-19.91-7.51s-7.7-12.55-7.7-22.47,2.59-17.45,7.7-22.38,11.81-7.42,19.91-7.42H485v-11.2Z" transform="translate(-395.04 -387.89)"/><path class="cls-9" d="M797.31,435.17V510.7H762.37a54.24,54.24,0,0,1-22.12-4.46,51,51,0,0,1-17.38-12.47,57.66,57.66,0,0,1-11.37-19.2,71.28,71.28,0,0,1-4.1-24.66,70.52,70.52,0,0,1,4.1-24.57,57.83,57.83,0,0,1,11.37-19.11,51.18,51.18,0,0,1,17.38-12.47,54.24,54.24,0,0,1,22.12-4.46h34.94v12.2H762.37A44.64,44.64,0,0,0,744.62,405a40.66,40.66,0,0,0-14,9.82,45,45,0,0,0-9.2,15.29,57.3,57.3,0,0,0-3.27,19.84,58.07,58.07,0,0,0,3.27,19.93,44.87,44.87,0,0,0,9.2,15.38,40.69,40.69,0,0,0,14,9.83,44.81,44.81,0,0,0,17.75,3.45h24V447.36H755.45V435.17Zm-34.94,56.42a38.73,38.73,0,0,1-15-2.91,34.92,34.92,0,0,1-12.1-8.29,38.23,38.23,0,0,1-8-13.1,49.08,49.08,0,0,1-2.91-17.38,48.53,48.53,0,0,1,2.91-17.2,38.33,38.33,0,0,1,8-13.1,34.9,34.9,0,0,1,12.1-8.28,38.74,38.74,0,0,1,15-2.92h34.94v12.2H762.37q-12,0-19.57,7.28t-7.55,22q0,14.74,7.55,22.11t19.57,7.37h6.91V464.83H755.45V452.64H780v38.95Z" transform="translate(-395.04 -387.89)"/><path class="cls-10" d="M797.81,511.2H762.36a55,55,0,0,1-22.31-4.5,51.83,51.83,0,0,1-17.55-12.59A58.4,58.4,0,0,1,711,474.74a72.06,72.06,0,0,1-4.13-24.83A71.3,71.3,0,0,1,711,425.17a58.58,58.58,0,0,1,11.47-19.28,51.81,51.81,0,0,1,17.55-12.58,54.87,54.87,0,0,1,22.31-4.51h35.45V402H762.36a44.36,44.36,0,0,0-17.54,3.42,40.31,40.31,0,0,0-13.85,9.7,44.85,44.85,0,0,0-9.09,15.12,57.07,57.07,0,0,0-3.24,19.67,57.84,57.84,0,0,0,3.24,19.76A44.75,44.75,0,0,0,731,484.88a40.57,40.57,0,0,0,13.85,9.71A44.53,44.53,0,0,0,762.36,498h23.53V447.86H755V434.67h42.86ZM762.36,389.8a54,54,0,0,0-21.91,4.42,50.79,50.79,0,0,0-17.21,12.35A57.36,57.36,0,0,0,712,425.51a70.33,70.33,0,0,0-4.07,24.4A71.05,71.05,0,0,0,712,474.4a57.39,57.39,0,0,0,11.27,19,50.76,50.76,0,0,0,17.21,12.34,53.91,53.91,0,0,0,21.91,4.42h34.45V435.67H756v11.19h30.94V499H762.36a45.44,45.44,0,0,1-17.94-3.49,41.44,41.44,0,0,1-14.18-9.95,45.41,45.41,0,0,1-9.3-15.55,58.81,58.81,0,0,1-3.3-20.1,57.81,57.81,0,0,1,3.31-20,45.59,45.59,0,0,1,9.29-15.46,41.41,41.41,0,0,1,14.18-9.94,45.31,45.31,0,0,1,17.94-3.5h34.45V389.8Zm18.16,102.29H762.36a39.48,39.48,0,0,1-15.2-2.95,35.69,35.69,0,0,1-12.28-8.4,39.31,39.31,0,0,1-8.11-13.27,49.86,49.86,0,0,1-2.94-17.56,49.32,49.32,0,0,1,2.94-17.38,39.31,39.31,0,0,1,8.11-13.27,35.69,35.69,0,0,1,12.28-8.4,39.55,39.55,0,0,1,15.2-2.95h35.45v13.2H762.36c-7.83,0-14.3,2.4-19.21,7.14s-7.4,12-7.4,21.66,2.49,17,7.4,21.75,11.38,7.23,19.21,7.23h6.42V465.33H755V452.14h25.57Zm-18.16-83.18a38.38,38.38,0,0,0-14.82,2.88A34.61,34.61,0,0,0,735.61,420a37.87,37.87,0,0,0-7.9,12.94,48.2,48.2,0,0,0-2.88,17,48.74,48.74,0,0,0,2.88,17.2,37.78,37.78,0,0,0,7.9,12.94,34.61,34.61,0,0,0,11.93,8.16,38.34,38.34,0,0,0,14.82,2.88h17.16V453.14H756v11.19h13.83v15.56h-7.42c-8.1,0-14.8-2.53-19.91-7.51s-7.7-12.55-7.7-22.47,2.59-17.45,7.7-22.38,11.81-7.42,19.91-7.42h34.45v-11.2Z" transform="translate(-395.04 -387.89)"/><path class="cls-11" d="M1131.25,389.3h11.1V510.7h-11.1Zm28.21,121.4h-10.92V389.3h10.92Z" transform="translate(-395.04 -387.89)"/><path class="cls-12" d="M1160,511.2H1148V388.8H1160Zm-10.92-1H1159V389.8H1149Zm-6.19,1h-12.1V388.8h12.1Zm-11.1-1h10.1V389.8h-10.1Z" transform="translate(-395.04 -387.89)"/><path class="cls-13" d="M634.12,510.7A54.16,54.16,0,0,1,612,506.24a51.08,51.08,0,0,1-17.39-12.47,57.66,57.66,0,0,1-11.37-19.2,71.28,71.28,0,0,1-4.1-24.66,70.52,70.52,0,0,1,4.1-24.57,57.83,57.83,0,0,1,11.37-19.11A51.22,51.22,0,0,1,612,393.76a54.16,54.16,0,0,1,22.11-4.46h4.37a54.19,54.19,0,0,1,22.11,4.46A51.18,51.18,0,0,1,678,406.23a57.86,57.86,0,0,1,11.38,19.11,70.52,70.52,0,0,1,4.09,24.57,71.28,71.28,0,0,1-4.09,24.66A57.68,57.68,0,0,1,678,493.77a51,51,0,0,1-17.38,12.47,54.19,54.19,0,0,1-22.11,4.46Zm-44.23-60.79a57.83,57.83,0,0,0,3.28,19.93,44.85,44.85,0,0,0,9.19,15.38,40.69,40.69,0,0,0,14,9.83,44.84,44.84,0,0,0,17.75,3.45h4.37a44.37,44.37,0,0,0,17.56-3.45,40.69,40.69,0,0,0,14-9.83,44.85,44.85,0,0,0,9.19-15.38,57.83,57.83,0,0,0,3.28-19.93,57.07,57.07,0,0,0-3.28-19.84,45,45,0,0,0-9.19-15.29,40.66,40.66,0,0,0-14-9.82,44.2,44.2,0,0,0-17.56-3.46h-4.37A44.67,44.67,0,0,0,616.37,405a40.66,40.66,0,0,0-14,9.82,45,45,0,0,0-9.19,15.29A57.07,57.07,0,0,0,589.89,449.91Zm44.23,41.86a38.77,38.77,0,0,1-15-2.91,34.42,34.42,0,0,1-12.1-8.37,39.37,39.37,0,0,1-8-13.2,49.08,49.08,0,0,1-2.91-17.38,48.53,48.53,0,0,1,2.91-17.2,39.33,39.33,0,0,1,8-13.19,34.58,34.58,0,0,1,12.1-8.38,38.77,38.77,0,0,1,15-2.91h4.37a38.09,38.09,0,0,1,14.92,2.91,34.79,34.79,0,0,1,12,8.38,39.33,39.33,0,0,1,8,13.19,48.53,48.53,0,0,1,2.91,17.2,49.08,49.08,0,0,1-2.91,17.38,39.37,39.37,0,0,1-8,13.2,34.63,34.63,0,0,1-12,8.37,38.09,38.09,0,0,1-14.92,2.91Zm4.37-12.19q12,0,19.56-7.47t7.55-22.2q0-14.57-7.64-22t-19.47-7.46h-4.37q-12,0-19.57,7.37T607,449.91q0,14.74,7.55,22.2t19.57,7.47Z" transform="translate(-395.04 -387.89)"/><path class="cls-14" d="M638.49,511.2h-4.37a55,55,0,0,1-22.32-4.5,51.93,51.93,0,0,1-17.55-12.59,58.4,58.4,0,0,1-11.47-19.37,72.06,72.06,0,0,1-4.13-24.83,71.3,71.3,0,0,1,4.13-24.74,58.58,58.58,0,0,1,11.47-19.28,51.9,51.9,0,0,1,17.55-12.58,54.89,54.89,0,0,1,22.32-4.51h4.37a54.84,54.84,0,0,1,22.31,4.51,51.77,51.77,0,0,1,17.55,12.58,58.34,58.34,0,0,1,11.47,19.28A71.26,71.26,0,0,1,694,449.91a72,72,0,0,1-4.13,24.83,58.16,58.16,0,0,1-11.47,19.37A51.93,51.93,0,0,1,660.8,506.7,55,55,0,0,1,638.49,511.2Zm-4.37-121.4a53.91,53.91,0,0,0-21.91,4.42A50.87,50.87,0,0,0,595,406.57a57.53,57.53,0,0,0-11.27,18.94,75.44,75.44,0,0,0,0,48.89,57.56,57.56,0,0,0,11.27,19,50.71,50.71,0,0,0,17.22,12.34,53.84,53.84,0,0,0,21.91,4.42h4.37a53.91,53.91,0,0,0,21.91-4.42,50.76,50.76,0,0,0,17.21-12.34,57.52,57.52,0,0,0,11.28-19A71.29,71.29,0,0,0,693,449.91a70.52,70.52,0,0,0-4.06-24.4,57.65,57.65,0,0,0-11.28-18.94,50.79,50.79,0,0,0-17.21-12.35,53.91,53.91,0,0,0-21.91-4.42ZM638.49,499h-4.37a45.41,45.41,0,0,1-17.94-3.49A41.48,41.48,0,0,1,602,485.56,45.49,45.49,0,0,1,592.7,470a58.57,58.57,0,0,1-3.31-20.1,57.81,57.81,0,0,1,3.31-20A45.75,45.75,0,0,1,602,414.44a41.45,41.45,0,0,1,14.19-9.94,45.24,45.24,0,0,1,17.94-3.5h4.37a44.88,44.88,0,0,1,17.76,3.5,41.51,41.51,0,0,1,14.18,9.94,45.59,45.59,0,0,1,9.29,15.46,57.77,57.77,0,0,1,3.31,20,58.57,58.57,0,0,1-3.31,20.1,45.42,45.42,0,0,1-9.29,15.55,41.54,41.54,0,0,1-14.18,9.95A45,45,0,0,1,638.49,499Zm-4.37-97a44.41,44.41,0,0,0-17.55,3.42,40.28,40.28,0,0,0-13.84,9.7,44.69,44.69,0,0,0-9.09,15.12,56.84,56.84,0,0,0-3.25,19.67,57.6,57.6,0,0,0,3.25,19.76,44.43,44.43,0,0,0,9.09,15.21,40.44,40.44,0,0,0,13.84,9.71A44.55,44.55,0,0,0,634.12,498h4.37a44.07,44.07,0,0,0,17.36-3.41,40.57,40.57,0,0,0,13.85-9.71,44.51,44.51,0,0,0,9.08-15.21A57.6,57.6,0,0,0,682,449.91a56.84,56.84,0,0,0-3.25-19.67,44.77,44.77,0,0,0-9.08-15.12,40.41,40.41,0,0,0-13.85-9.7A43.93,43.93,0,0,0,638.49,402Zm4.37,90.27h-4.37a39.34,39.34,0,0,1-15.21-2.95,35.11,35.11,0,0,1-12.28-8.49,40.43,40.43,0,0,1-8.11-13.36,49.86,49.86,0,0,1-2.94-17.56,49.32,49.32,0,0,1,2.94-17.38,40.43,40.43,0,0,1,8.11-13.36,35.11,35.11,0,0,1,12.28-8.49,39.41,39.41,0,0,1,15.21-2.95h4.37a38.7,38.7,0,0,1,15.11,2.95,35.32,35.32,0,0,1,12.19,8.49,40.43,40.43,0,0,1,8.11,13.36,49.36,49.36,0,0,1,2.94,17.38,49.9,49.9,0,0,1-2.94,17.56,40.43,40.43,0,0,1-8.11,13.36,35.32,35.32,0,0,1-12.19,8.49A38.63,38.63,0,0,1,638.49,492.27Zm-4.37-83.54a38.52,38.52,0,0,0-14.82,2.87,34.1,34.1,0,0,0-11.93,8.26,39.06,39.06,0,0,0-7.91,13,48.2,48.2,0,0,0-2.88,17,48.74,48.74,0,0,0,2.88,17.2,39.06,39.06,0,0,0,7.91,13,34,34,0,0,0,11.93,8.26,38.48,38.48,0,0,0,14.82,2.87h4.37a37.85,37.85,0,0,0,14.73-2.87,34.36,34.36,0,0,0,11.84-8.26,39.2,39.2,0,0,0,7.9-13,52.26,52.26,0,0,0,0-34.22,39.2,39.2,0,0,0-7.9-13,34.49,34.49,0,0,0-11.84-8.26,37.92,37.92,0,0,0-14.73-2.87Zm4.37,71.35h-4.37c-8.11,0-14.81-2.56-19.92-7.61s-7.7-12.64-7.7-22.56,2.59-17.48,7.7-22.47,11.81-7.51,19.92-7.51h4.37c8,0,14.65,2.55,19.82,7.6s7.79,12.58,7.79,22.38-2.59,17.51-7.7,22.56S646.59,480.08,638.49,480.08Zm-4.37-59.15c-7.84,0-14.31,2.43-19.22,7.22s-7.4,12.12-7.4,21.76,2.49,17,7.4,21.85,11.38,7.32,19.22,7.32h4.37c7.83,0,14.3-2.47,19.21-7.32s7.4-12.21,7.4-21.85-2.52-16.81-7.49-21.66-11.41-7.32-19.12-7.32Z" transform="translate(-395.04 -387.89)"/><path class="cls-15" d="M909.54,510.7H893.71l-38.77-42.95q17.47-3.11,25.39-11.65t7.92-22a34.37,34.37,0,0,0-2.37-12.74A30.75,30.75,0,0,0,879.24,411a31.62,31.62,0,0,0-10.19-6.91,32.56,32.56,0,0,0-13-2.55H825.64V510.7h-11.1V389.3H856.4a47.19,47.19,0,0,1,17.74,3.19,38.13,38.13,0,0,1,13.56,9.1,41.12,41.12,0,0,1,8.74,14.29,53.81,53.81,0,0,1,3.09,18.74,48.75,48.75,0,0,1-1.91,14.47,34.28,34.28,0,0,1-5.28,10.56,31.82,31.82,0,0,1-7.91,7.46,58.83,58.83,0,0,1-9.83,5.19Zm-25.84,0H869.14l-26.39-30.76V510.7h-11.1V408.41h24.57a24.22,24.22,0,0,1,9.73,2,25.48,25.48,0,0,1,8.1,5.46,25.23,25.23,0,0,1,5.46,8.19,26.23,26.23,0,0,1,2,10.37,24.63,24.63,0,0,1-7.28,17.84q-7.28,7.46-22.2,8.91a7.57,7.57,0,0,0-4.55,1.82,4.56,4.56,0,0,0-1.46,3.28,7.86,7.86,0,0,0,2.19,5.1Zm-41-56.42a8.11,8.11,0,0,1,4-3.1,29.29,29.29,0,0,1,8.37-1.45q15.48-.92,15.47-15.29A14.37,14.37,0,0,0,867,424.7q-3.54-4.09-11-4.09H842.75Z" transform="translate(-395.04 -387.89)"/><path class="cls-16" d="M910.67,511.2H893.49L854,467.41l.89-.16c11.48-2,19.93-5.9,25.1-11.49s7.79-12.88,7.79-21.68a34.26,34.26,0,0,0-2.33-12.56,30.52,30.52,0,0,0-6.54-10.21,31.24,31.24,0,0,0-10-6.81A32.32,32.32,0,0,0,856,402H826.14V511.2H814V388.8H856.4A48.07,48.07,0,0,1,874.33,392a38.87,38.87,0,0,1,13.73,9.22,41.8,41.8,0,0,1,8.85,14.46A54.65,54.65,0,0,1,900,434.62a49.43,49.43,0,0,1-1.93,14.62A35.26,35.26,0,0,1,892.74,460a32.67,32.67,0,0,1-8,7.58,58.81,58.81,0,0,1-9.26,5Zm-16.74-1h14.48l-34.66-38.09.66-.28a57,57,0,0,0,9.74-5.14,31.23,31.23,0,0,0,7.79-7.35,34,34,0,0,0,5.2-10.4A48.11,48.11,0,0,0,899,434.62,53.58,53.58,0,0,0,896,416.05a40.86,40.86,0,0,0-8.63-14.12A38,38,0,0,0,874,393a46.94,46.94,0,0,0-17.56-3.15H815V510.2h10.1V401H856a33.16,33.16,0,0,1,13.21,2.59,32.38,32.38,0,0,1,10.36,7,31.55,31.55,0,0,1,6.75,10.54,35.23,35.23,0,0,1,2.4,12.93c0,9.06-2.71,16.59-8,22.36-5.2,5.61-13.53,9.52-24.79,11.64Zm-9.11,1H868.91l-.15-.18-25.51-29.73V511.2h-12.1V407.91h25.07a24.87,24.87,0,0,1,9.93,2A25.73,25.73,0,0,1,880,423.87a26.92,26.92,0,0,1,2,10.57,25.23,25.23,0,0,1-7.42,18.19c-4.91,5-12.49,8.08-22.51,9.06a7.08,7.08,0,0,0-4.25,1.68,4,4,0,0,0-1.31,2.92,7.43,7.43,0,0,0,2.07,4.77Zm-15.45-1h13.2l-34.73-38.48a8.39,8.39,0,0,1-2.32-5.43,5,5,0,0,1,1.61-3.63,8,8,0,0,1,4.84-2c9.79-1,17.16-3.91,21.91-8.77A24.3,24.3,0,0,0,881,434.44a26.05,26.05,0,0,0-2-10.18,25,25,0,0,0-5.35-8,25.55,25.55,0,0,0-8-5.36,23.91,23.91,0,0,0-9.53-2H832.15V510.2h10.1V478.59ZM842.25,456V420.11H856c5.11,0,8.94,1.43,11.39,4.27a14.87,14.87,0,0,1,3.67,10.06c0,9.85-5.36,15.17-15.94,15.79a28.87,28.87,0,0,0-8.21,1.42,7.66,7.66,0,0,0-3.77,2.89Zm1-34.89v31.74a9.32,9.32,0,0,1,3.32-2.13,29.37,29.37,0,0,1,8.52-1.49c10.1-.59,15-5.43,15-14.79a14,14,0,0,0-3.42-9.41c-2.26-2.6-5.84-3.92-10.64-3.92Z" transform="translate(-395.04 -387.89)"/><path class="cls-17" d="M1176.25,389.3h11.1V510.7h-11.1Zm28.21,121.4h-10.92V389.3h10.92Z" transform="translate(-395.04 -387.89)"/><path class="cls-18" d="M1205,511.2H1193V388.8H1205Zm-10.92-1H1204V389.8H1194Zm-6.19,1h-12.1V388.8h12.1Zm-11.1-1h10.1V389.8h-10.1Z" transform="translate(-395.04 -387.89)"/></svg>